<?xml version="1.0" encoding="UTF-8" standalone="no"?>
<!-- Created with Inkscape (http://www.inkscape.org/) -->

<svg
   version="1.1"
   id="svg267083"
   width="668.57141"
   height="689.14288"
   viewBox="0 0 668.57141 689.14288"
   sodipodi:docname="Pink-circle.svg"
   inkscape:version="1.1.2 (b8e25be833, 2022-02-05)"
   xmlns:inkscape="http://www.inkscape.org/namespaces/inkscape"
   xmlns:sodipodi="http://sodipodi.sourceforge.net/DTD/sodipodi-0.dtd"
   xmlns="http://www.w3.org/2000/svg"
   xmlns:svg="http://www.w3.org/2000/svg">
  <defs
     id="defs267087">
    <rect
       x="-1120"
       y="20"
       width="60"
       height="140"
       id="rect182206" />
  </defs>
  <sodipodi:namedview
     id="namedview267085"
     pagecolor="#ffffff"
     bordercolor="#666666"
     borderopacity="1.0"
     inkscape:pageshadow="2"
     inkscape:pageopacity="0.0"
     inkscape:pagecheckerboard="0"
     showgrid="false"
     inkscape:zoom="0.53252878"
     inkscape:cx="184.02761"
     inkscape:cy="505.13702"
     inkscape:window-width="1366"
     inkscape:window-height="705"
     inkscape:window-x="-8"
     inkscape:window-y="-8"
     inkscape:window-maximized="1"
     inkscape:current-layer="g267089" />
  <g
     inkscape:groupmode="layer"
     inkscape:label="Image"
     id="g267089">
    <g
       id="g49070"
       inkscape:export-filename="C:\Users\HAROLD\Pictures\up-heal\pink-circle.png"
       inkscape:export-xdpi="27.692308"
       inkscape:export-ydpi="27.692308">
      <rect
         style="fill:#ff7993;stroke-width:0.814669;fill-opacity:0.98039216"
         id="rect182060"
         width="556.94122"
         height="427.09061"
         x="64.002945"
         y="147.21053"
         inkscape:export-filename="C:\Users\HAROLD\Pictures\up-heal\blk-circle.png"
         inkscape:export-xdpi="27.692308"
         inkscape:export-ydpi="27.692308" />
      <rect
         style="fill:#fa7790;stroke-width:2.77091;fill-opacity:1"
         id="rect182062"
         width="34.393547"
         height="22.323954"
         x="529.27148"
         y="365.88336"
         inkscape:export-filename="C:\Users\HAROLD\Pictures\up-heal\blk-circle.png"
         inkscape:export-xdpi="27.692308"
         inkscape:export-ydpi="27.692308" />
      <ellipse
         style="fill:#ffffff;stroke-width:1.94624"
         id="ellipse182114"
         cx="342.14749"
         cy="361.72162"
         rx="278.29105"
         ry="212.33519"
         inkscape:export-filename="C:\Users\HAROLD\Pictures\up-heal\blk-circle.png"
         inkscape:export-xdpi="27.692308"
         inkscape:export-ydpi="27.692308" />
      <text
         xml:space="preserve"
         style="font-size:99.9846px;line-height:1.25;font-family:sans-serif;fill:#fa7790;stroke-width:1.04151;fill-opacity:1"
         x="-281.43246"
         y="268.36566"
         id="text182118"
         transform="matrix(0.43232872,-0.87663196,0.9472312,0.3923562,0,0)"
         inkscape:export-filename="C:\Users\HAROLD\Pictures\up-heal\blk-circle.png"
         inkscape:export-xdpi="27.692308"
         inkscape:export-ydpi="27.692308"><tspan
           sodipodi:role="line"
           id="tspan182116"
           x="-281.43246"
           y="268.36566"
           style="fill:#fa7790;stroke-width:1.04151;fill-opacity:1">U</tspan></text>
      <text
         xml:space="preserve"
         id="text182122"
         style="font-size:96px;line-height:1.25;font-family:sans-serif;white-space:pre;shape-inside:url(#rect182206);fill:#fa7790;fill-opacity:1"
         transform="matrix(0.684088,-0.77304386,0.81304548,0.66026454,830.46569,-635.55803)"
         inkscape:transform-center-x="12.487805"
         inkscape:transform-center-y="-10.037346"
         inkscape:export-filename="C:\Users\HAROLD\Pictures\up-heal\blk-circle.png"
         inkscape:export-xdpi="27.692308"
         inkscape:export-ydpi="27.692308"><tspan
           x="-1120"
           y="107.58371"
           id="tspan49125">P</tspan></text>
      <text
         xml:space="preserve"
         style="font-size:97.0478px;line-height:1.25;font-family:sans-serif;fill:#fa7790;stroke-width:1.01091;fill-opacity:1"
         x="29.365282"
         y="325.58038"
         id="text182126"
         transform="matrix(0.88468444,-0.49722481,0.52753604,0.83385212,0,0)"
         inkscape:export-filename="C:\Users\HAROLD\Pictures\up-heal\blk-circle.png"
         inkscape:export-xdpi="27.692308"
         inkscape:export-ydpi="27.692308"><tspan
           sodipodi:role="line"
           id="tspan182124"
           x="29.365282"
           y="325.58038"
           style="stroke-width:1.01091;fill:#fa7790;fill-opacity:1">H</tspan></text>
      <text
         xml:space="preserve"
         style="font-size:97.0478px;line-height:1.25;font-family:sans-serif;fill:#fa7790;stroke-width:1.01091;fill-opacity:1"
         x="187.96811"
         y="283.58817"
         id="text182130"
         transform="matrix(1.0045399,-0.21464399,0.22772886,0.9468209,0,0)"
         inkscape:export-filename="C:\Users\HAROLD\Pictures\up-heal\blk-circle.png"
         inkscape:export-xdpi="27.692308"
         inkscape:export-ydpi="27.692308"><tspan
           sodipodi:role="line"
           id="tspan182128"
           x="187.96811"
           y="283.58817"
           style="stroke-width:1.01091;fill:#fa7790;fill-opacity:1">E</tspan></text>
      <text
         xml:space="preserve"
         style="font-size:97.0478px;line-height:1.25;font-family:sans-serif;fill:#fa7790;stroke-width:1.01091;fill-opacity:1"
         x="319.80411"
         y="192.93127"
         id="text182134"
         transform="matrix(1.0261504,0.08417803,-0.08930958,0.96718969,0,0)"
         inkscape:export-filename="C:\Users\HAROLD\Pictures\up-heal\blk-circle.png"
         inkscape:export-xdpi="27.692308"
         inkscape:export-ydpi="27.692308"><tspan
           sodipodi:role="line"
           id="tspan182132"
           x="319.80411"
           y="192.93127"
           style="stroke-width:1.01091;fill:#fa7790;fill-opacity:1">A</tspan></text>
      <text
         xml:space="preserve"
         style="font-size:97.0478px;line-height:1.25;font-family:sans-serif;fill:#fa7790;stroke-width:1.01091;fill-opacity:1"
         x="414.70352"
         y="116.36575"
         id="text182138"
         transform="matrix(0.99052609,0.26628915,-0.28252235,0.93361232,0,0)"
         inkscape:export-filename="C:\Users\HAROLD\Pictures\up-heal\blk-circle.png"
         inkscape:export-xdpi="27.692308"
         inkscape:export-ydpi="27.692308"><tspan
           sodipodi:role="line"
           id="tspan182136"
           x="414.70352"
           y="116.36575"
           style="stroke-width:1.01091;fill:#fa7790;fill-opacity:1">L</tspan></text>
      <text
         xml:space="preserve"
         style="font-size:97.0478px;line-height:1.25;font-family:sans-serif;fill:#fa7790;stroke-width:1.01091;fill-opacity:1"
         x="494.15308"
         y="-51.703091"
         id="text182142"
         transform="matrix(0.84616522,0.55359011,-0.58733742,0.79754615,0,0)"
         inkscape:export-filename="C:\Users\HAROLD\Pictures\up-heal\blk-circle.png"
         inkscape:export-xdpi="27.692308"
         inkscape:export-ydpi="27.692308"><tspan
           sodipodi:role="line"
           id="tspan182140"
           x="494.15308"
           y="-51.703091"
           style="stroke-width:1.01091;fill:#fa7790;fill-opacity:1">D</tspan></text>
      <text
         xml:space="preserve"
         style="font-size:97.0478px;line-height:1.25;font-family:sans-serif;fill:#fa7790;stroke-width:1.01091;fill-opacity:1"
         x="504.39075"
         y="-235.82988"
         id="text182146"
         transform="matrix(0.60339095,0.78682783,-0.83479349,0.56872124,0,0)"
         inkscape:export-filename="C:\Users\HAROLD\Pictures\up-heal\blk-circle.png"
         inkscape:export-xdpi="27.692308"
         inkscape:export-ydpi="27.692308"><tspan
           sodipodi:role="line"
           id="tspan182144"
           x="504.39075"
           y="-235.82988"
           style="stroke-width:1.01091;fill:#fa7790;fill-opacity:1">A</tspan></text>
      <text
         xml:space="preserve"
         style="font-size:97.0478px;line-height:1.25;font-family:sans-serif;fill:#fa7790;stroke-width:1.01091;fill-opacity:1"
         x="479.37607"
         y="-372.0535"
         id="text182150"
         transform="matrix(0.36671164,0.90723432,-0.96254008,0.34564108,0,0)"
         inkscape:export-filename="C:\Users\HAROLD\Pictures\up-heal\blk-circle.png"
         inkscape:export-xdpi="27.692308"
         inkscape:export-ydpi="27.692308"><tspan
           sodipodi:role="line"
           id="tspan182148"
           x="479.37607"
           y="-372.0535"
           style="stroke-width:1.01091;fill:#fa7790;fill-opacity:1">O</tspan></text>
      <path
         style="fill:#ff7993;stroke:#ff7c95;stroke-width:2.63216px;stroke-linecap:butt;stroke-linejoin:miter;stroke-opacity:1;fill-opacity:0.98039216"
         d="m 222.80548,276.75717 -27.9316,17.8592 -18.6211,17.8591 -12.4141,17.8592 -6.207,26.7887 3.1035,22.324 3.1035,15.6267 3.1035,11.1621 9.3106,11.1619 12.414,13.3943 12.4142,11.16207 21.7245,13.39432 6.2071,4.46479 3.1036,26.78876 -3.1036,24.55638 -3.1035,11.16195 -6.2071,11.16194 -6.2069,8.92966 c 0,0 -4.3967,3.72064 -6.2071,6.69717 l 15.5175,6.69717 15.5177,6.69717 15.5176,4.46477 c 3.1034,2.23238 15.259,1.67434 21.7246,2.23238 l 21.7247,2.2324 h 18.621 21.7247 21.7247 21.7246 l 18.6211,-2.2324 v -8.92955 l 12.4141,-13.39434 12.414,-5.58097 15.5177,-3.34858 15.5176,-4.46488 h 12.4141 l 15.5175,-2.23239 h 12.4142 l 12.4141,-2.23238 c 6.207,-4.46479 6.207,-11.16195 6.207,-13.39434 l -3.1036,-6.69717 -3.1034,-6.69726 v -4.46478 c -3.1036,-2.23239 0,-4.46478 0,-4.46478 l 3.1034,-2.23239 h 6.207 l 3.1036,-4.46478 v -2.23238 l -6.207,-2.2324 -3.1036,-2.23238 -3.1034,-2.23239 h 6.207 3.1034 l 6.2072,-2.2324 v -4.46477 l -3.1036,-4.46488 -3.1036,-4.46478 v -4.46477 l 3.1036,-4.46478 h 6.2071 c 3.1034,-1.48826 9.3105,-2.23239 9.3105,-4.46479 4.6557,-0.64233 5.5242,-9.50966 0,-13.39432 l -3.1036,-2.2325 -9.3104,-8.9295 -6.2072,-6.6972 -6.207,-6.6972 -6.207,-8.9296 -3.1035,-8.9296 v -8.9296 -6.6971 -11.162 -11.1621 l -3.1035,-13.3942 -6.2071,-13.3945 -6.207,-11.162 -6.2071,-8.9295 -15.5176,-13.3943 -18.621,-11.1621 -21.7248,-8.9295 -18.621,-6.6972 -18.6211,-4.4648 -15.5177,-2.2324 -27.9317,-2.2323 h -40.3457 l -21.7246,2.2323 -18.6211,2.2324 -21.7246,6.6973 -18.6213,6.6971"
         id="path182152"
         sodipodi:nodetypes="ccccccccccccccccccccccccccccccccccccccccccccccccccccccccccccccccccccccccccccccccccccccc"
         inkscape:export-filename="C:\Users\HAROLD\Pictures\up-heal\blk-circle.png"
         inkscape:export-xdpi="27.692308"
         inkscape:export-ydpi="27.692308" />
      <path
         style="fill:#ffffff;fill-opacity:0.980392;stroke:#ffffff;stroke-width:2.34393px;stroke-linecap:butt;stroke-linejoin:miter;stroke-opacity:1"
         d="m 240.60509,299.53523 -14.71715,9.33283 -14.71715,9.33275 -14.71706,18.6655 -5.88691,16.79908 -2.94342,20.53216 c 0,0 -1.96227,9.95494 2.94342,13.06583 l 5.88691,14.9325 5.88683,5.59966 8.83023,3.73309 11.77374,1.86658 2.94341,5.59966 2.94351,7.46621 8.83023,5.59971 8.83023,3.73311 8.83033,1.86658 8.83033,-1.86658 8.83032,1.86658 2.94332,1.86652 8.83033,1.86659 h 8.83024 v 0 h 5.88691 v 1.86651 l 8.83024,3.73318 h 11.77374 5.88682 l 5.88682,-3.73318 2.94351,-7.4662 2.9434,-7.46617 5.88683,-7.46626 5.88691,-5.59968 11.77366,-1.86658 14.71715,1.86658 h 8.83023 l 5.88691,-1.86658 8.83024,-3.73308 8.83023,-3.73309 5.88693,-3.73316 v -7.46625 -3.73308 -3.73317 l 5.88681,-1.86658 8.83034,-1.8665 h 5.88681 11.77374 l 14.71706,-5.59975 8.83034,-7.46617 2.9434,-7.46624 2.94341,-13.06592 -2.94341,-9.33275 -5.88673,-11.19933 -8.83033,-7.46625 -14.71715,-9.33274 -14.71714,-7.46634 -23.54748,-7.46616 -23.54739,-7.46625 -32.37763,-3.73308 -41.20803,-1.86659 -26.49089,3.73309 -20.60398,5.59975 z"
         id="path182154"
         sodipodi:nodetypes="cccccccccccccccccccccccccccccccccccccccccccccccccccccccccccccc" />
      <g
         id="g269160"
         transform="matrix(0.97776604,0,0,0.82870841,-484.31353,126.75175)"
         style="stroke:#ff7c95;stroke-opacity:1">
        <rect
           style="fill:#ff7c95;fill-opacity:1;stroke:#ff7c95;stroke-width:2.41948;stroke-opacity:1"
           id="rect182164"
           width="29.255758"
           height="20.009457"
           x="693.71411"
           y="284.44717" />
        <path
           style="fill:none;stroke:#ff7c95;stroke-width:2.41948px;stroke-linecap:butt;stroke-linejoin:miter;stroke-opacity:1"
           d="m 709.3021,295.8682 94.17703,-3.74442 v 0 l -50.29334,43.76334 43.88368,20.00943 58.51149,-20.00943"
           id="path182156"
           sodipodi:nodetypes="cccccc" />
        <path
           style="fill:none;stroke:#ff7c95;stroke-width:2.41948px;stroke-linecap:butt;stroke-linejoin:miter;stroke-opacity:1"
           d="m 738.55789,245.84443 c 0,0 0,0 -29.25579,50.02377 l 43.88369,40.01892"
           id="path182158" />
        <path
           style="fill:none;stroke:#ff7c95;stroke-width:2.41948px;stroke-linecap:butt;stroke-linejoin:miter;stroke-opacity:1"
           d="m 797.06947,355.89655 c 4.87596,-16.67458 36.20058,-133.32054 14.62789,-50.02375"
           id="path182160"
           sodipodi:nodetypes="cc" />
        <path
           style="fill:none;stroke:#ff7c95;stroke-width:2.41948px;stroke-linecap:butt;stroke-linejoin:miter;stroke-opacity:1"
           d="M 855.58096,335.88712 828.03703,280.78815"
           id="path182162"
           sodipodi:nodetypes="cc" />
        <rect
           style="fill:#ff7c95;fill-opacity:1;stroke:#ff7c95;stroke-width:2.41948;stroke-opacity:1"
           id="rect182166"
           width="26.019213"
           height="20.426498"
           x="741.79468"
           y="325.46536" />
        <rect
           style="fill:#ff7c95;fill-opacity:1;stroke:#ff7c95;stroke-width:2.41948;stroke-opacity:1"
           id="rect182168"
           width="23.591787"
           height="21.677662"
           x="788.10541"
           y="344.2236" />
        <path
           style="fill:none;stroke:#ff7c95;stroke-width:2.41948px;stroke-linecap:butt;stroke-linejoin:miter;stroke-opacity:1"
           d="m 858.50652,333.88606 17.87999,-28.53436 8.45015,-13.48545 h 58.51158 l -5.85121,-26.01229 -29.25571,-22.01043 -32.18134,20.00946 h 55.58592"
           id="path182170"
           sodipodi:nodetypes="cccccccc" />
        <path
           style="fill:none;stroke:#ff7c95;stroke-width:2.41948px;stroke-linecap:butt;stroke-linejoin:miter;stroke-opacity:1"
           d="m 873.13441,263.85299 -45.09738,16.93516"
           id="path182172"
           sodipodi:nodetypes="cc" />
        <path
           style="fill:none;stroke:#ff7c95;stroke-width:2.41948px;stroke-linecap:butt;stroke-linejoin:miter;stroke-opacity:1"
           d="M 884.83666,291.86625 838.0275,287.86431"
           id="path182174" />
        <path
           style="fill:none;stroke:#ff7c95;stroke-width:2.41948px;stroke-linecap:butt;stroke-linejoin:miter;stroke-opacity:1"
           d="m 867.28329,227.83593 -49.7348,41.86044 -23.40467,-45.86221 -52.66028,20.00937 61.90192,34.69066"
           id="path182176"
           sodipodi:nodetypes="ccccc" />
        <path
           style="fill:none;stroke:#ff7c95;stroke-width:2.41948px;stroke-linecap:butt;stroke-linejoin:miter;stroke-opacity:1"
           d="m 794.14382,223.83416 67.28826,2.00089 46.80924,16.00761"
           id="path182178" />
        <rect
           style="fill:#ff7c95;fill-opacity:1;stroke:#ff7c95;stroke-width:2.41948;stroke-opacity:1"
           id="rect182180"
           width="26.019213"
           height="20.009443"
           x="723.93024"
           y="235.83994" />
        <rect
           style="fill:#ff7c95;fill-opacity:1;stroke:#ff7c95;stroke-width:2.41948;stroke-opacity:1"
           id="rect182182"
           width="22.378082"
           height="20.009443"
           x="855.58099"
           y="215.83035"
           ry="0" />
        <rect
           style="fill:#ff7c95;fill-opacity:1;stroke:#ff7c95;stroke-width:1.93558;stroke-opacity:1"
           id="rect182184"
           width="17.740654"
           height="15.590508"
           x="928.29022"
           y="282.74216" />
        <rect
           style="fill:#ff7c95;fill-opacity:1;stroke:#ff7c95;stroke-width:1.93558;stroke-opacity:1"
           id="rect182190"
           width="19.763496"
           height="16.007561"
           x="926.51019"
           y="255.84921" />
        <rect
           style="fill:#ff7c95;fill-opacity:1;stroke:#ff7c95;stroke-width:1.69364;stroke-opacity:1"
           id="rect182192"
           width="16.433334"
           height="13.172524"
           x="899.46429"
           y="235.83994" />
        <rect
           style="fill:#ff7c95;fill-opacity:1;stroke:#ff7c95;stroke-width:2.41948;stroke-opacity:1"
           id="rect182194"
           width="23.874624"
           height="20.009407"
           x="840.95306"
           y="325.88242" />
        <rect
           style="fill:#ff7c95;fill-opacity:1;stroke:#ff7c95;stroke-width:3.38728;stroke-opacity:1"
           id="rect182196"
           width="20.479033"
           height="14.006619"
           x="782.44147"
           y="215.83035" />
        <path
           style="fill:#ffffff;stroke:#ff7c95;stroke-width:3.17422px;stroke-linecap:butt;stroke-linejoin:miter;stroke-opacity:1"
           d="m 866.3081,258.67413 18.52856,27.1893"
           id="path182198"
           sodipodi:nodetypes="cc" />
        <rect
           style="fill:#ff7c95;fill-opacity:1;stroke:#ff7c95;stroke-width:2.41948;stroke-opacity:1"
           id="rect182200"
           width="14.360645"
           height="12.182327"
           x="865.9541"
           y="257.76187" />
        <rect
           style="fill:#ff7c95;fill-opacity:1;stroke:#ff7c95;stroke-width:2.41948;stroke-opacity:1"
           id="rect182202"
           width="17.553453"
           height="14.006619"
           x="878.98535"
           y="283.8624" />
        <rect
           style="fill:#ff7c95;fill-opacity:1;stroke:#ff7c95;stroke-width:2.41948;stroke-opacity:1"
           id="rect268606"
           width="50.293316"
           height="40.445103"
           x="791.65924"
           y="259.62106"
           ry="0" />
      </g>
    </g>
  </g>
</svg>
