<?xml version="1.0" encoding="UTF-8" standalone="no"?>
<!-- Created with Inkscape (http://www.inkscape.org/) -->

<svg
   version="1.1"
   id="svg267083"
   width="668.57141"
   height="689.14288"
   viewBox="0 0 668.57141 689.14288"
   sodipodi:docname="blk-cir.svg"
   inkscape:version="1.1.2 (b8e25be833, 2022-02-05)"
   xmlns:inkscape="http://www.inkscape.org/namespaces/inkscape"
   xmlns:sodipodi="http://sodipodi.sourceforge.net/DTD/sodipodi-0.dtd"
   xmlns="http://www.w3.org/2000/svg"
   xmlns:svg="http://www.w3.org/2000/svg">
  <defs
     id="defs267087">
    <rect
       x="-1120"
       y="20"
       width="60"
       height="140"
       id="rect182206" />
  </defs>
  <sodipodi:namedview
     id="namedview267085"
     pagecolor="#ffffff"
     bordercolor="#666666"
     borderopacity="1.0"
     inkscape:pageshadow="2"
     inkscape:pageopacity="0.0"
     inkscape:pagecheckerboard="0"
     showgrid="false"
     inkscape:zoom="0.53252878"
     inkscape:cx="256.32417"
     inkscape:cy="473.21386"
     inkscape:window-width="1366"
     inkscape:window-height="705"
     inkscape:window-x="-8"
     inkscape:window-y="-8"
     inkscape:window-maximized="1"
     inkscape:current-layer="g267089" />
  <g
     inkscape:groupmode="layer"
     inkscape:label="Image"
     id="g267089">
    <rect
       style="fill:#000000;stroke-width:0.814669"
       id="rect182060"
       width="556.94122"
       height="427.09061"
       x="64.002945"
       y="147.21053"
       inkscape:export-filename="C:\Users\HAROLD\Pictures\up-heal\blk-circle.png"
       inkscape:export-xdpi="27.692308"
       inkscape:export-ydpi="27.692308" />
    <rect
       style="fill:#ffffff;stroke-width:2.77091"
       id="rect182062"
       width="34.393547"
       height="22.323954"
       x="529.27148"
       y="365.88336"
       inkscape:export-filename="C:\Users\HAROLD\Pictures\up-heal\blk-circle.png"
       inkscape:export-xdpi="27.692308"
       inkscape:export-ydpi="27.692308" />
    <ellipse
       style="fill:#ffffff;stroke-width:1.94624"
       id="ellipse182114"
       cx="342.14749"
       cy="361.72162"
       rx="278.29105"
       ry="212.33519"
       inkscape:export-filename="C:\Users\HAROLD\Pictures\up-heal\blk-circle.png"
       inkscape:export-xdpi="27.692308"
       inkscape:export-ydpi="27.692308" />
    <text
       xml:space="preserve"
       style="font-size:99.9846px;line-height:1.25;font-family:sans-serif;fill:#000000;stroke-width:1.04151"
       x="-281.43246"
       y="268.36566"
       id="text182118"
       transform="matrix(0.43232872,-0.87663196,0.9472312,0.3923562,0,0)"
       inkscape:export-filename="C:\Users\HAROLD\Pictures\up-heal\blk-circle.png"
       inkscape:export-xdpi="27.692308"
       inkscape:export-ydpi="27.692308"><tspan
         sodipodi:role="line"
         id="tspan182116"
         x="-281.43246"
         y="268.36566"
         style="fill:#000000;stroke-width:1.04151">U</tspan></text>
    <text
       xml:space="preserve"
       id="text182122"
       style="font-size:96px;line-height:1.25;font-family:sans-serif;white-space:pre;shape-inside:url(#rect182206);fill:#000000"
       transform="matrix(0.684088,-0.77304386,0.81304548,0.66026454,830.46569,-635.55803)"
       inkscape:transform-center-x="12.487805"
       inkscape:transform-center-y="-10.037346"
       inkscape:export-filename="C:\Users\HAROLD\Pictures\up-heal\blk-circle.png"
       inkscape:export-xdpi="27.692308"
       inkscape:export-ydpi="27.692308"><tspan
         x="-1120"
         y="107.58371"
         id="tspan269244">P</tspan></text>
    <text
       xml:space="preserve"
       style="font-size:97.0478px;line-height:1.25;font-family:sans-serif;fill:#000000;stroke-width:1.01091"
       x="29.365282"
       y="325.58038"
       id="text182126"
       transform="matrix(0.88468444,-0.49722481,0.52753604,0.83385212,0,0)"
       inkscape:export-filename="C:\Users\HAROLD\Pictures\up-heal\blk-circle.png"
       inkscape:export-xdpi="27.692308"
       inkscape:export-ydpi="27.692308"><tspan
         sodipodi:role="line"
         id="tspan182124"
         x="29.365282"
         y="325.58038"
         style="stroke-width:1.01091">H</tspan></text>
    <text
       xml:space="preserve"
       style="font-size:97.0478px;line-height:1.25;font-family:sans-serif;fill:#000000;stroke-width:1.01091"
       x="187.96811"
       y="283.58817"
       id="text182130"
       transform="matrix(1.0045399,-0.21464399,0.22772886,0.9468209,0,0)"
       inkscape:export-filename="C:\Users\HAROLD\Pictures\up-heal\blk-circle.png"
       inkscape:export-xdpi="27.692308"
       inkscape:export-ydpi="27.692308"><tspan
         sodipodi:role="line"
         id="tspan182128"
         x="187.96811"
         y="283.58817"
         style="stroke-width:1.01091">E</tspan></text>
    <text
       xml:space="preserve"
       style="font-size:97.0478px;line-height:1.25;font-family:sans-serif;fill:#000000;stroke-width:1.01091"
       x="319.80411"
       y="192.93127"
       id="text182134"
       transform="matrix(1.0261504,0.08417803,-0.08930958,0.96718969,0,0)"
       inkscape:export-filename="C:\Users\HAROLD\Pictures\up-heal\blk-circle.png"
       inkscape:export-xdpi="27.692308"
       inkscape:export-ydpi="27.692308"><tspan
         sodipodi:role="line"
         id="tspan182132"
         x="319.80411"
         y="192.93127"
         style="stroke-width:1.01091">A</tspan></text>
    <text
       xml:space="preserve"
       style="font-size:97.0478px;line-height:1.25;font-family:sans-serif;fill:#000000;stroke-width:1.01091"
       x="414.70352"
       y="116.36575"
       id="text182138"
       transform="matrix(0.99052609,0.26628915,-0.28252235,0.93361232,0,0)"
       inkscape:export-filename="C:\Users\HAROLD\Pictures\up-heal\blk-circle.png"
       inkscape:export-xdpi="27.692308"
       inkscape:export-ydpi="27.692308"><tspan
         sodipodi:role="line"
         id="tspan182136"
         x="414.70352"
         y="116.36575"
         style="stroke-width:1.01091">L</tspan></text>
    <text
       xml:space="preserve"
       style="font-size:97.0478px;line-height:1.25;font-family:sans-serif;fill:#000000;stroke-width:1.01091"
       x="494.15308"
       y="-51.703091"
       id="text182142"
       transform="matrix(0.84616522,0.55359011,-0.58733742,0.79754615,0,0)"
       inkscape:export-filename="C:\Users\HAROLD\Pictures\up-heal\blk-circle.png"
       inkscape:export-xdpi="27.692308"
       inkscape:export-ydpi="27.692308"><tspan
         sodipodi:role="line"
         id="tspan182140"
         x="494.15308"
         y="-51.703091"
         style="stroke-width:1.01091">D</tspan></text>
    <text
       xml:space="preserve"
       style="font-size:97.0478px;line-height:1.25;font-family:sans-serif;fill:#000000;stroke-width:1.01091"
       x="504.39075"
       y="-235.82988"
       id="text182146"
       transform="matrix(0.60339095,0.78682783,-0.83479349,0.56872124,0,0)"
       inkscape:export-filename="C:\Users\HAROLD\Pictures\up-heal\blk-circle.png"
       inkscape:export-xdpi="27.692308"
       inkscape:export-ydpi="27.692308"><tspan
         sodipodi:role="line"
         id="tspan182144"
         x="504.39075"
         y="-235.82988"
         style="stroke-width:1.01091">A</tspan></text>
    <text
       xml:space="preserve"
       style="font-size:97.0478px;line-height:1.25;font-family:sans-serif;fill:#000000;stroke-width:1.01091"
       x="479.37607"
       y="-372.0535"
       id="text182150"
       transform="matrix(0.36671164,0.90723432,-0.96254008,0.34564108,0,0)"
       inkscape:export-filename="C:\Users\HAROLD\Pictures\up-heal\blk-circle.png"
       inkscape:export-xdpi="27.692308"
       inkscape:export-ydpi="27.692308"><tspan
         sodipodi:role="line"
         id="tspan182148"
         x="479.37607"
         y="-372.0535"
         style="stroke-width:1.01091">O</tspan></text>
    <path
       style="fill:#000000;stroke:#000000;stroke-width:2.63216px;stroke-linecap:butt;stroke-linejoin:miter;stroke-opacity:1"
       d="m 222.80548,276.75717 -27.9316,17.8592 -18.6211,17.8591 -12.4141,17.8592 -6.207,26.7887 3.1035,22.324 3.1035,15.6267 3.1035,11.1621 9.3106,11.1619 12.414,13.3943 12.4142,11.16207 21.7245,13.39432 6.2071,4.46479 3.1036,26.78876 -3.1036,24.55638 -3.1035,11.16195 -6.2071,11.16194 -6.2069,8.92966 c 0,0 -4.3967,3.72064 -6.2071,6.69717 l 15.5175,6.69717 15.5177,6.69717 15.5176,4.46477 c 3.1034,2.23238 15.259,1.67434 21.7246,2.23238 l 21.7247,2.2324 h 18.621 21.7247 21.7247 21.7246 l 18.6211,-2.2324 v -8.92955 l 12.4141,-13.39434 12.414,-5.58097 15.5177,-3.34858 15.5176,-4.46488 h 12.4141 l 15.5175,-2.23239 h 12.4142 l 12.4141,-2.23238 c 6.207,-4.46479 6.207,-11.16195 6.207,-13.39434 l -3.1036,-6.69717 -3.1034,-6.69726 v -4.46478 c -3.1036,-2.23239 0,-4.46478 0,-4.46478 l 3.1034,-2.23239 h 6.207 l 3.1036,-4.46478 v -2.23238 l -6.207,-2.2324 -3.1036,-2.23238 -3.1034,-2.23239 h 6.207 3.1034 l 6.2072,-2.2324 v -4.46477 l -3.1036,-4.46488 -3.1036,-4.46478 v -4.46477 l 3.1036,-4.46478 h 6.2071 c 3.1034,-1.48826 9.3105,-2.23239 9.3105,-4.46479 4.6557,-0.64233 5.5242,-9.50966 0,-13.39432 l -3.1036,-2.2325 -9.3104,-8.9295 -6.2072,-6.6972 -6.207,-6.6972 -6.207,-8.9296 -3.1035,-8.9296 v -8.9296 -6.6971 -11.162 -11.1621 l -3.1035,-13.3942 -6.2071,-13.3945 -6.207,-11.162 -6.2071,-8.9295 -15.5176,-13.3943 -18.621,-11.1621 -21.7248,-8.9295 -18.621,-6.6972 -18.6211,-4.4648 -15.5177,-2.2324 -27.9317,-2.2323 h -40.3457 l -21.7246,2.2323 -18.6211,2.2324 -21.7246,6.6973 -18.6213,6.6971"
       id="path182152"
       sodipodi:nodetypes="ccccccccccccccccccccccccccccccccccccccccccccccccccccccccccccccccccccccccccccccccccccccc"
       inkscape:export-filename="C:\Users\HAROLD\Pictures\up-heal\blk-circle.png"
       inkscape:export-xdpi="27.692308"
       inkscape:export-ydpi="27.692308" />
    <g
       id="g269188"
       transform="matrix(0.97776604,0,0,0.82870841,5.1598769,55.811439)"
       inkscape:export-filename="C:\Users\HAROLD\Pictures\up-heal\blk-circle.png"
       inkscape:export-xdpi="27.692308"
       inkscape:export-ydpi="27.692308">
      <path
         style="fill:#ff7993;fill-opacity:0.980392;stroke:#ff7993;stroke-width:2.60391px;stroke-linecap:butt;stroke-linejoin:miter;stroke-opacity:0.980392"
         d="m 234.92271,286.87578 -15.05181,11.2619 -15.05181,11.2618 -15.05172,22.5236 -6.02078,20.2714 -3.01035,24.7761 c 0,0 -2.00689,12.0126 3.01035,15.7665 l 6.02078,18.019 6.02069,6.7571 9.03103,4.5047 12.04147,2.2524 3.01034,6.7571 3.01044,9.00945 9.03103,6.75715 9.03103,4.50473 9.03112,2.2524 9.03113,-2.2524 9.03112,2.2524 3.01025,2.25232 9.03113,2.25241 h 9.03103 v 0 h 6.02078 v 2.25231 l 9.03103,4.50482 h 12.04147 6.02069 l 6.02068,-4.50482 3.01044,-9.00944 3.01034,-9.0094 6.02069,-9.00951 6.02078,-6.75712 12.04138,-2.2524 15.05181,2.2524 h 9.03103 l 6.02078,-2.2524 9.03103,-4.5047 9.03103,-4.5047 6.02079,-4.5048 v -9.0095 -4.5047 -4.5048 l 6.02068,-2.2524 9.03113,-2.2523 h 6.02068 12.04147 l 15.05172,-6.7572 9.03113,-9.0094 3.01034,-9.0095 3.01034,-15.7666 -3.01034,-11.2618 -6.02059,-13.5142 -9.03113,-9.0095 -15.05181,-11.2618 -15.05181,-9.0096 -24.08294,-9.0094 -24.08284,-9.0095 -33.11388,-4.5047 -42.14509,-2.2524 -27.09328,4.5047 -21.0725,6.7572 z"
         id="path182154"
         sodipodi:nodetypes="cccccccccccccccccccccccccccccccccccccccccccccccccccccccccccccc" />
      <g
         id="g269160"
         transform="translate(-161.78197,-239.1088)">
        <rect
           style="fill:#ffffff;stroke-width:2.41948"
           id="rect182164"
           width="29.255758"
           height="20.009457"
           x="366.85339"
           y="597.6203" />
        <g
           id="g269134">
          <path
             style="fill:none;stroke:#ffffff;stroke-width:2.41948px;stroke-linecap:butt;stroke-linejoin:miter;stroke-opacity:1"
             d="m 381.4811,607.62508 94.17703,-3.74443 v 0 l -50.29334,43.76335 43.88368,20.00943 58.51149,-20.00943"
             id="path182156"
             sodipodi:nodetypes="cccccc" />
          <path
             style="fill:none;stroke:#ffffff;stroke-width:2.41948px;stroke-linecap:butt;stroke-linejoin:miter;stroke-opacity:1"
             d="m 410.73689,557.6013 c 0,0 0,0 -29.25579,50.02378 l 43.88369,40.01892"
             id="path182158" />
          <path
             style="fill:none;stroke:#ffffff;stroke-width:2.41948px;stroke-linecap:butt;stroke-linejoin:miter;stroke-opacity:1"
             d="m 469.24847,667.65343 c 4.87596,-16.67458 36.20058,-133.32054 14.62789,-50.02375"
             id="path182160"
             sodipodi:nodetypes="cc" />
          <path
             style="fill:none;stroke:#ffffff;stroke-width:2.41948px;stroke-linecap:butt;stroke-linejoin:miter;stroke-opacity:1"
             d="M 527.75996,647.644 500.21603,592.54503"
             id="path182162"
             sodipodi:nodetypes="cc" />
          <rect
             style="fill:#ffffff;stroke-width:2.41948"
             id="rect182166"
             width="26.019213"
             height="20.426498"
             x="413.97366"
             y="637.22223" />
          <rect
             style="fill:#ffffff;stroke-width:2.41948"
             id="rect182168"
             width="23.591787"
             height="21.677662"
             x="460.28442"
             y="655.98047" />
          <path
             style="fill:none;stroke:#ffffff;stroke-width:2.41948px;stroke-linecap:butt;stroke-linejoin:miter;stroke-opacity:1"
             d="m 530.68552,645.64294 17.87999,-28.53436 8.45015,-13.48545 h 58.51158 l -5.85121,-26.01229 -29.25571,-22.01043 -32.18134,20.00946 h 55.58592"
             id="path182170"
             sodipodi:nodetypes="cccccccc" />
          <path
             style="fill:none;stroke:#ffffff;stroke-width:2.41948px;stroke-linecap:butt;stroke-linejoin:miter;stroke-opacity:1"
             d="m 545.31341,575.60987 -45.09738,16.93516"
             id="path182172"
             sodipodi:nodetypes="cc" />
          <path
             style="fill:none;stroke:#ffffff;stroke-width:2.41948px;stroke-linecap:butt;stroke-linejoin:miter;stroke-opacity:1"
             d="M 557.01566,603.62313 510.2065,599.62119"
             id="path182174" />
          <path
             style="fill:none;stroke:#ffffff;stroke-width:2.41948px;stroke-linecap:butt;stroke-linejoin:miter;stroke-opacity:1"
             d="m 539.46229,539.59281 -49.7348,41.86044 -23.40467,-45.86221 -52.66028,20.00937 61.90192,34.69066"
             id="path182176"
             sodipodi:nodetypes="ccccc" />
          <path
             style="fill:none;stroke:#ffffff;stroke-width:2.41948px;stroke-linecap:butt;stroke-linejoin:miter;stroke-opacity:1"
             d="m 466.32282,535.59104 67.28826,2.00088 46.80924,16.00761"
             id="path182178" />
          <rect
             style="fill:#ffffff;stroke-width:2.41948"
             id="rect182180"
             width="26.019213"
             height="20.009443"
             x="396.10922"
             y="547.5968" />
          <rect
             style="fill:#ffffff;stroke-width:2.41948"
             id="rect182182"
             width="22.378082"
             height="20.009443"
             x="527.76001"
             y="527.58722"
             ry="0" />
          <rect
             style="fill:#ffffff;stroke-width:1.93558"
             id="rect182184"
             width="17.740654"
             height="15.590508"
             x="600.46924"
             y="594.49902" />
          <rect
             style="fill:#ffffff;stroke-width:1.93558"
             id="rect182190"
             width="19.763496"
             height="16.007561"
             x="598.68921"
             y="567.60608" />
          <rect
             style="fill:#ffffff;stroke-width:1.69364"
             id="rect182192"
             width="16.433334"
             height="13.172524"
             x="571.64331"
             y="547.5968" />
          <rect
             style="fill:#f9f9f9;stroke-width:2.41948"
             id="rect182194"
             width="23.874624"
             height="20.009407"
             x="513.13208"
             y="637.63928" />
          <rect
             style="fill:#ffffff;stroke-width:3.38728"
             id="rect182196"
             width="20.479033"
             height="14.006619"
             x="454.62048"
             y="527.58722" />
          <path
             style="fill:#ffffff;stroke:#ffffff;stroke-width:3.17422px;stroke-linecap:butt;stroke-linejoin:miter;stroke-opacity:1"
             d="m 538.4871,570.43101 18.52856,27.1893"
             id="path182198"
             sodipodi:nodetypes="cc" />
          <rect
             style="fill:#ffffff;stroke-width:2.41948"
             id="rect182200"
             width="14.360645"
             height="12.182327"
             x="538.13312"
             y="569.51874" />
          <rect
             style="fill:#ffffff;stroke-width:2.41948"
             id="rect182202"
             width="17.553453"
             height="14.006619"
             x="551.16437"
             y="595.61926" />
          <rect
             style="fill:#ffffff;stroke-width:2.41948"
             id="rect268606"
             width="50.293316"
             height="40.445103"
             x="463.83823"
             y="571.37793"
             ry="0" />
        </g>
      </g>
    </g>
  </g>
</svg>
