<?xml version="1.0" encoding="UTF-8" standalone="no"?>
<!-- Created with Inkscape (http://www.inkscape.org/) -->

<svg
   version="1.1"
   id="svg267083"
   width="668.57141"
   height="689.14288"
   viewBox="0 0 668.57141 689.14288"
   sodipodi:docname="blk-ci1r.svg"
   inkscape:version="1.1.2 (b8e25be833, 2022-02-05)"
   xmlns:inkscape="http://www.inkscape.org/namespaces/inkscape"
   xmlns:sodipodi="http://sodipodi.sourceforge.net/DTD/sodipodi-0.dtd"
   xmlns="http://www.w3.org/2000/svg"
   xmlns:svg="http://www.w3.org/2000/svg">
  <defs
     id="defs267087">
    <rect
       x="-1120"
       y="20"
       width="60"
       height="140"
       id="rect182206" />
  </defs>
  <sodipodi:namedview
     id="namedview267085"
     pagecolor="#ffffff"
     bordercolor="#666666"
     borderopacity="1.0"
     inkscape:pageshadow="2"
     inkscape:pageopacity="0.0"
     inkscape:pagecheckerboard="0"
     showgrid="false"
     inkscape:zoom="0.26626439"
     inkscape:cx="-505.13702"
     inkscape:cy="-120.1813"
     inkscape:window-width="1366"
     inkscape:window-height="705"
     inkscape:window-x="-8"
     inkscape:window-y="-8"
     inkscape:window-maximized="1"
     inkscape:current-layer="g267089" />
  <g
     inkscape:groupmode="layer"
     inkscape:label="Image"
     id="g267089">
    <rect
       style="fill:#000000;stroke-width:0.814669"
       id="rect182060"
       width="556.94122"
       height="427.09061"
       x="64.002945"
       y="147.21053"
       inkscape:export-filename="C:\Users\HAROLD\Pictures\up-heal\blk-circle.png"
       inkscape:export-xdpi="27.692308"
       inkscape:export-ydpi="27.692308" />
    <rect
       style="fill:#ffffff;stroke-width:2.77091"
       id="rect182062"
       width="34.393547"
       height="22.323954"
       x="529.27148"
       y="365.88336"
       inkscape:export-filename="C:\Users\HAROLD\Pictures\up-heal\blk-circle.png"
       inkscape:export-xdpi="27.692308"
       inkscape:export-ydpi="27.692308" />
    <ellipse
       style="fill:#ffffff;stroke-width:1.94624"
       id="ellipse182114"
       cx="342.14749"
       cy="361.72162"
       rx="278.29105"
       ry="212.33519"
       inkscape:export-filename="C:\Users\HAROLD\Pictures\up-heal\blk-circle.png"
       inkscape:export-xdpi="27.692308"
       inkscape:export-ydpi="27.692308" />
    <text
       xml:space="preserve"
       style="font-size:99.9846px;line-height:1.25;font-family:sans-serif;fill:#000000;stroke-width:1.04151"
       x="-281.43246"
       y="268.36566"
       id="text182118"
       transform="matrix(0.43232872,-0.87663196,0.9472312,0.3923562,0,0)"
       inkscape:export-filename="C:\Users\HAROLD\Pictures\up-heal\blk-circle.png"
       inkscape:export-xdpi="27.692308"
       inkscape:export-ydpi="27.692308"><tspan
         sodipodi:role="line"
         id="tspan182116"
         x="-281.43246"
         y="268.36566"
         style="fill:#000000;stroke-width:1.04151">U</tspan></text>
    <text
       xml:space="preserve"
       id="text182122"
       style="font-size:96px;line-height:1.25;font-family:sans-serif;white-space:pre;shape-inside:url(#rect182206);fill:#000000"
       transform="matrix(0.684088,-0.77304386,0.81304548,0.66026454,830.46569,-635.55803)"
       inkscape:transform-center-x="12.487805"
       inkscape:transform-center-y="-10.037346"
       inkscape:export-filename="C:\Users\HAROLD\Pictures\up-heal\blk-circle.png"
       inkscape:export-xdpi="27.692308"
       inkscape:export-ydpi="27.692308"><tspan
         x="-1120"
         y="107.58371"
         id="tspan269837">P</tspan></text>
    <text
       xml:space="preserve"
       style="font-size:97.0478px;line-height:1.25;font-family:sans-serif;fill:#000000;stroke-width:1.01091"
       x="29.365282"
       y="325.58038"
       id="text182126"
       transform="matrix(0.88468444,-0.49722481,0.52753604,0.83385212,0,0)"
       inkscape:export-filename="C:\Users\HAROLD\Pictures\up-heal\blk-circle.png"
       inkscape:export-xdpi="27.692308"
       inkscape:export-ydpi="27.692308"><tspan
         sodipodi:role="line"
         id="tspan182124"
         x="29.365282"
         y="325.58038"
         style="stroke-width:1.01091">H</tspan></text>
    <text
       xml:space="preserve"
       style="font-size:97.0478px;line-height:1.25;font-family:sans-serif;fill:#000000;stroke-width:1.01091"
       x="187.96811"
       y="283.58817"
       id="text182130"
       transform="matrix(1.0045399,-0.21464399,0.22772886,0.9468209,0,0)"
       inkscape:export-filename="C:\Users\HAROLD\Pictures\up-heal\blk-circle.png"
       inkscape:export-xdpi="27.692308"
       inkscape:export-ydpi="27.692308"><tspan
         sodipodi:role="line"
         id="tspan182128"
         x="187.96811"
         y="283.58817"
         style="stroke-width:1.01091">E</tspan></text>
    <text
       xml:space="preserve"
       style="font-size:97.0478px;line-height:1.25;font-family:sans-serif;fill:#000000;stroke-width:1.01091"
       x="319.80411"
       y="192.93127"
       id="text182134"
       transform="matrix(1.0261504,0.08417803,-0.08930958,0.96718969,0,0)"
       inkscape:export-filename="C:\Users\HAROLD\Pictures\up-heal\blk-circle.png"
       inkscape:export-xdpi="27.692308"
       inkscape:export-ydpi="27.692308"><tspan
         sodipodi:role="line"
         id="tspan182132"
         x="319.80411"
         y="192.93127"
         style="stroke-width:1.01091">A</tspan></text>
    <text
       xml:space="preserve"
       style="font-size:97.0478px;line-height:1.25;font-family:sans-serif;fill:#000000;stroke-width:1.01091"
       x="414.70352"
       y="116.36575"
       id="text182138"
       transform="matrix(0.99052609,0.26628915,-0.28252235,0.93361232,0,0)"
       inkscape:export-filename="C:\Users\HAROLD\Pictures\up-heal\blk-circle.png"
       inkscape:export-xdpi="27.692308"
       inkscape:export-ydpi="27.692308"><tspan
         sodipodi:role="line"
         id="tspan182136"
         x="414.70352"
         y="116.36575"
         style="stroke-width:1.01091">L</tspan></text>
    <text
       xml:space="preserve"
       style="font-size:97.0478px;line-height:1.25;font-family:sans-serif;fill:#000000;stroke-width:1.01091"
       x="494.15308"
       y="-51.703091"
       id="text182142"
       transform="matrix(0.84616522,0.55359011,-0.58733742,0.79754615,0,0)"
       inkscape:export-filename="C:\Users\HAROLD\Pictures\up-heal\blk-circle.png"
       inkscape:export-xdpi="27.692308"
       inkscape:export-ydpi="27.692308"><tspan
         sodipodi:role="line"
         id="tspan182140"
         x="494.15308"
         y="-51.703091"
         style="stroke-width:1.01091">D</tspan></text>
    <text
       xml:space="preserve"
       style="font-size:97.0478px;line-height:1.25;font-family:sans-serif;fill:#000000;stroke-width:1.01091"
       x="504.39075"
       y="-235.82988"
       id="text182146"
       transform="matrix(0.60339095,0.78682783,-0.83479349,0.56872124,0,0)"
       inkscape:export-filename="C:\Users\HAROLD\Pictures\up-heal\blk-circle.png"
       inkscape:export-xdpi="27.692308"
       inkscape:export-ydpi="27.692308"><tspan
         sodipodi:role="line"
         id="tspan182144"
         x="504.39075"
         y="-235.82988"
         style="stroke-width:1.01091">A</tspan></text>
    <text
       xml:space="preserve"
       style="font-size:97.0478px;line-height:1.25;font-family:sans-serif;fill:#000000;stroke-width:1.01091"
       x="479.37607"
       y="-372.0535"
       id="text182150"
       transform="matrix(0.36671164,0.90723432,-0.96254008,0.34564108,0,0)"
       inkscape:export-filename="C:\Users\HAROLD\Pictures\up-heal\blk-circle.png"
       inkscape:export-xdpi="27.692308"
       inkscape:export-ydpi="27.692308"><tspan
         sodipodi:role="line"
         id="tspan182148"
         x="479.37607"
         y="-372.0535"
         style="stroke-width:1.01091">O</tspan></text>
    <path
       style="fill:#000000;stroke:#000000;stroke-width:2.63216px;stroke-linecap:butt;stroke-linejoin:miter;stroke-opacity:1"
       d="m 222.80548,276.75717 -27.9316,17.8592 -18.6211,17.8591 -12.4141,17.8592 -6.207,26.7887 3.1035,22.324 3.1035,15.6267 3.1035,11.1621 9.3106,11.1619 12.414,13.3943 12.4142,11.16207 21.7245,13.39432 6.2071,4.46479 3.1036,26.78876 -3.1036,24.55638 -3.1035,11.16195 -6.2071,11.16194 -6.2069,8.92966 c 0,0 -4.3967,3.72064 -6.2071,6.69717 l 15.5175,6.69717 15.5177,6.69717 15.5176,4.46477 c 3.1034,2.23238 15.259,1.67434 21.7246,2.23238 l 21.7247,2.2324 h 18.621 21.7247 21.7247 21.7246 l 18.6211,-2.2324 v -8.92955 l 12.4141,-13.39434 12.414,-5.58097 15.5177,-3.34858 15.5176,-4.46488 h 12.4141 l 15.5175,-2.23239 h 12.4142 l 12.4141,-2.23238 c 6.207,-4.46479 6.207,-11.16195 6.207,-13.39434 l -3.1036,-6.69717 -3.1034,-6.69726 v -4.46478 c -3.1036,-2.23239 0,-4.46478 0,-4.46478 l 3.1034,-2.23239 h 6.207 l 3.1036,-4.46478 v -2.23238 l -6.207,-2.2324 -3.1036,-2.23238 -3.1034,-2.23239 h 6.207 3.1034 l 6.2072,-2.2324 v -4.46477 l -3.1036,-4.46488 -3.1036,-4.46478 v -4.46477 l 3.1036,-4.46478 h 6.2071 c 3.1034,-1.48826 9.3105,-2.23239 9.3105,-4.46479 4.6557,-0.64233 5.5242,-9.50966 0,-13.39432 l -3.1036,-2.2325 -9.3104,-8.9295 -6.2072,-6.6972 -6.207,-6.6972 -6.207,-8.9296 -3.1035,-8.9296 v -8.9296 -6.6971 -11.162 -11.1621 l -3.1035,-13.3942 -6.2071,-13.3945 -6.207,-11.162 -6.2071,-8.9295 -15.5176,-13.3943 -18.621,-11.1621 -21.7248,-8.9295 -18.621,-6.6972 -18.6211,-4.4648 -15.5177,-2.2324 -27.9317,-2.2323 h -40.3457 l -21.7246,2.2323 -18.6211,2.2324 -21.7246,6.6973 -18.6213,6.6971"
       id="path182152"
       sodipodi:nodetypes="ccccccccccccccccccccccccccccccccccccccccccccccccccccccccccccccccccccccccccccccccccccccc"
       inkscape:export-filename="C:\Users\HAROLD\Pictures\up-heal\blk-circle.png"
       inkscape:export-xdpi="27.692308"
       inkscape:export-ydpi="27.692308" />
    <path
       style="fill:#ffffff;fill-opacity:0.980392;stroke:#ffffff;stroke-width:2.34393px;stroke-linecap:butt;stroke-linejoin:miter;stroke-opacity:0.980392"
       d="m 234.71636,291.10694 -14.71714,9.33283 -14.71715,9.33275 -14.71706,18.6655 -5.88692,16.79908 -2.94342,20.53216 c 0,0 -1.96226,9.95494 2.94342,13.06583 l 5.88692,14.9325 5.88682,5.59966 8.83024,3.73309 11.77374,1.86658 2.94341,5.59966 2.9435,7.46621 8.83024,5.59971 8.83023,3.73311 8.83032,1.86658 8.83034,-1.86658 8.83032,1.86658 2.94332,1.86651 8.83033,1.8666 h 8.83023 v 0 h 5.88692 v 1.8665 l 8.83023,3.73319 h 11.77374 5.88683 l 5.88682,-3.73319 2.9435,-7.46619 2.94341,-7.46617 5.88683,-7.46626 5.88691,-5.59968 11.77365,-1.86658 14.71715,1.86658 h 8.83024 l 5.88691,-1.86658 8.83024,-3.73308 8.83023,-3.73309 5.88692,-3.73316 v -7.46625 -3.73308 -3.73317 l 5.88682,-1.86658 8.83033,-1.8665 h 5.88682 11.77374 l 14.71706,-5.59975 8.83033,-7.46617 2.94341,-7.46625 2.94341,-13.06591 -2.94341,-9.33275 -5.88673,-11.19933 -8.83033,-7.46625 -14.71715,-9.33275 -14.71715,-7.46633 -23.54748,-7.46616 -23.54738,-7.46625 -32.37763,-3.73308 -41.20804,-1.86659 -26.49089,3.73309 -20.60397,5.59974 z"
       id="path182154"
       sodipodi:nodetypes="cccccccccccccccccccccccccccccccccccccccccccccccccccccccccccccc"
       inkscape:export-filename="C:\Users\HAROLD\Pictures\up-heal\blk-circle.png"
       inkscape:export-xdpi="27.692308"
       inkscape:export-ydpi="27.692308" />
    <rect
       style="fill:#000000;stroke:#000000;stroke-width:2.17791"
       id="rect182164"
       width="28.605288"
       height="16.582005"
       x="189.02675"
       y="355.22089"
       inkscape:export-filename="C:\Users\HAROLD\Pictures\up-heal\blk-circle.png"
       inkscape:export-xdpi="27.692308"
       inkscape:export-ydpi="27.692308" />
    <path
       style="fill:none;stroke:#000000;stroke-width:2.17791px;stroke-linecap:butt;stroke-linejoin:miter;stroke-opacity:1"
       d="m 203.32922,363.51194 92.08311,-3.10304 v 0 l -49.17512,36.26706 42.90797,16.58198 57.21055,-16.58198"
       id="path182156"
       sodipodi:nodetypes="cccccc"
       inkscape:export-filename="C:\Users\HAROLD\Pictures\up-heal\blk-circle.png"
       inkscape:export-xdpi="27.692308"
       inkscape:export-ydpi="27.692308" />
    <path
       style="fill:none;stroke:#000000;stroke-width:2.17791px;stroke-linecap:butt;stroke-linejoin:miter;stroke-opacity:1"
       d="m 231.93454,322.05682 c 0,0 0,0 -28.60532,41.45512 l 42.90799,33.16402"
       id="path182158"
       inkscape:export-filename="C:\Users\HAROLD\Pictures\up-heal\blk-circle.png"
       inkscape:export-xdpi="27.692308"
       inkscape:export-ydpi="27.692308" />
    <path
       style="fill:none;stroke:#000000;stroke-width:2.17791px;stroke-linecap:butt;stroke-linejoin:miter;stroke-opacity:1"
       d="m 289.14518,413.25794 c 4.76755,-13.81836 35.3957,-110.48385 14.30265,-41.4551"
       id="path182160"
       sodipodi:nodetypes="cc"
       inkscape:export-filename="C:\Users\HAROLD\Pictures\up-heal\blk-circle.png"
       inkscape:export-xdpi="27.692308"
       inkscape:export-ydpi="27.692308" />
    <path
       style="fill:none;stroke:#000000;stroke-width:2.17791px;stroke-linecap:butt;stroke-linejoin:miter;stroke-opacity:1"
       d="M 346.35573,396.67596 319.42421,351.01498"
       id="path182162"
       sodipodi:nodetypes="cc"
       inkscape:export-filename="C:\Users\HAROLD\Pictures\up-heal\blk-circle.png"
       inkscape:export-xdpi="27.692308"
       inkscape:export-ydpi="27.692308" />
    <rect
       style="fill:#000000;stroke:#000000;stroke-width:2.17791"
       id="rect182166"
       width="25.440702"
       height="16.92761"
       x="235.09935"
       y="388.03934"
       inkscape:export-filename="C:\Users\HAROLD\Pictures\up-heal\blk-circle.png"
       inkscape:export-xdpi="27.692308"
       inkscape:export-ydpi="27.692308" />
    <rect
       style="fill:#000000;stroke:#000000;stroke-width:2.17791"
       id="rect182168"
       width="23.067249"
       height="17.96446"
       x="280.38043"
       y="403.58447"
       inkscape:export-filename="C:\Users\HAROLD\Pictures\up-heal\blk-circle.png"
       inkscape:export-xdpi="27.692308"
       inkscape:export-ydpi="27.692308" />
    <path
       style="fill:none;stroke:#000000;stroke-width:2.17791px;stroke-linecap:butt;stroke-linejoin:miter;stroke-opacity:1"
       d="m 349.21624,395.01766 17.48245,-23.64666 8.26227,-11.17551 h 57.21063 l -5.72111,-21.5566 -28.60524,-18.24023 -31.46582,16.58201 h 54.35002"
       id="path182170"
       sodipodi:nodetypes="cccccccc"
       inkscape:export-filename="C:\Users\HAROLD\Pictures\up-heal\blk-circle.png"
       inkscape:export-xdpi="27.692308"
       inkscape:export-ydpi="27.692308" />
    <path
       style="fill:none;stroke:#000000;stroke-width:2.17791px;stroke-linecap:butt;stroke-linejoin:miter;stroke-opacity:1"
       d="m 363.51889,336.98067 -44.09468,14.03431"
       id="path182172"
       sodipodi:nodetypes="cc"
       inkscape:export-filename="C:\Users\HAROLD\Pictures\up-heal\blk-circle.png"
       inkscape:export-xdpi="27.692308"
       inkscape:export-ydpi="27.692308" />
    <path
       style="fill:none;stroke:#000000;stroke-width:2.17791px;stroke-linecap:butt;stroke-linejoin:miter;stroke-opacity:1"
       d="m 374.96096,360.19549 -45.76841,-3.31644"
       id="path182174"
       inkscape:export-filename="C:\Users\HAROLD\Pictures\up-heal\blk-circle.png"
       inkscape:export-xdpi="27.692308"
       inkscape:export-ydpi="27.692308" />
    <path
       style="fill:none;stroke:#000000;stroke-width:2.17791px;stroke-linecap:butt;stroke-linejoin:miter;stroke-opacity:1"
       d="m 357.79787,307.13303 -48.629,34.6901 -22.88429,-38.0064 -51.48944,16.58193 60.5256,28.74844"
       id="path182176"
       sodipodi:nodetypes="ccccc"
       inkscape:export-filename="C:\Users\HAROLD\Pictures\up-heal\blk-circle.png"
       inkscape:export-xdpi="27.692308"
       inkscape:export-ydpi="27.692308" />
    <path
       style="fill:none;stroke:#000000;stroke-width:2.17791px;stroke-linecap:butt;stroke-linejoin:miter;stroke-opacity:1"
       d="m 286.28458,303.81673 65.79217,1.65815 45.76849,13.26564"
       id="path182178"
       inkscape:export-filename="C:\Users\HAROLD\Pictures\up-heal\blk-circle.png"
       inkscape:export-xdpi="27.692308"
       inkscape:export-ydpi="27.692308" />
    <rect
       style="fill:#000000;stroke:#000000;stroke-width:2.17791"
       id="rect182180"
       width="25.440702"
       height="16.581993"
       x="217.63211"
       y="313.76599"
       inkscape:export-filename="C:\Users\HAROLD\Pictures\up-heal\blk-circle.png"
       inkscape:export-xdpi="27.692308"
       inkscape:export-ydpi="27.692308" />
    <rect
       style="fill:#000000;stroke:#000000;stroke-width:2.17791"
       id="rect182182"
       width="21.880529"
       height="16.581993"
       x="346.35577"
       y="297.1839"
       ry="0"
       inkscape:export-filename="C:\Users\HAROLD\Pictures\up-heal\blk-circle.png"
       inkscape:export-xdpi="27.692308"
       inkscape:export-ydpi="27.692308" />
    <rect
       style="fill:#000000;stroke:#000000;stroke-width:1.74233"
       id="rect182184"
       width="17.346209"
       height="12.919986"
       x="417.44839"
       y="352.63428"
       inkscape:export-filename="C:\Users\HAROLD\Pictures\up-heal\blk-circle.png"
       inkscape:export-xdpi="27.692308"
       inkscape:export-ydpi="27.692308" />
    <rect
       style="fill:#000000;stroke:#000000;stroke-width:1.74233"
       id="rect182190"
       width="19.324076"
       height="13.2656"
       x="415.70795"
       y="330.34787"
       inkscape:export-filename="C:\Users\HAROLD\Pictures\up-heal\blk-circle.png"
       inkscape:export-xdpi="27.692308"
       inkscape:export-ydpi="27.692308" />
    <rect
       style="fill:#000000;stroke:#000000;stroke-width:1.52454"
       id="rect182192"
       width="16.067957"
       height="10.916182"
       x="389.26337"
       y="313.76599"
       inkscape:export-filename="C:\Users\HAROLD\Pictures\up-heal\blk-circle.png"
       inkscape:export-xdpi="27.692308"
       inkscape:export-ydpi="27.692308" />
    <rect
       style="fill:#000000;stroke:#000000;stroke-width:2.17791"
       id="rect182194"
       width="23.343798"
       height="16.581964"
       x="332.05307"
       y="388.38498"
       inkscape:export-filename="C:\Users\HAROLD\Pictures\up-heal\blk-circle.png"
       inkscape:export-xdpi="27.692308"
       inkscape:export-ydpi="27.692308" />
    <rect
       style="fill:#000000;stroke:#000000;stroke-width:3.04908"
       id="rect182196"
       width="20.023703"
       height="11.607404"
       x="274.84244"
       y="297.1839"
       inkscape:export-filename="C:\Users\HAROLD\Pictures\up-heal\blk-circle.png"
       inkscape:export-xdpi="27.692308"
       inkscape:export-ydpi="27.692308" />
    <path
       style="fill:#000000;stroke:#000000;stroke-width:2.8573px;stroke-linecap:butt;stroke-linejoin:miter;stroke-opacity:1"
       d="m 356.84436,332.68891 18.1166,22.532"
       id="path182198"
       sodipodi:nodetypes="cc"
       inkscape:export-filename="C:\Users\HAROLD\Pictures\up-heal\blk-circle.png"
       inkscape:export-xdpi="27.692308"
       inkscape:export-ydpi="27.692308" />
    <rect
       style="fill:#000000;stroke:#000000;stroke-width:2.17791"
       id="rect182200"
       width="14.041351"
       height="10.095597"
       x="356.49826"
       y="331.93289"
       inkscape:export-filename="C:\Users\HAROLD\Pictures\up-heal\blk-circle.png"
       inkscape:export-xdpi="27.692308"
       inkscape:export-ydpi="27.692308" />
    <rect
       style="fill:#000000;stroke:#000000;stroke-width:2.17791"
       id="rect182202"
       width="17.16317"
       height="11.607404"
       x="369.23975"
       y="353.56262"
       inkscape:export-filename="C:\Users\HAROLD\Pictures\up-heal\blk-circle.png"
       inkscape:export-xdpi="27.692308"
       inkscape:export-ydpi="27.692308" />
    <rect
       style="fill:#000000;stroke:#000000;stroke-width:2.17791"
       id="rect268606"
       width="49.175095"
       height="33.517197"
       x="283.85522"
       y="333.47363"
       ry="0"
       inkscape:export-filename="C:\Users\HAROLD\Pictures\up-heal\blk-circle.png"
       inkscape:export-xdpi="27.692308"
       inkscape:export-ydpi="27.692308" />
  </g>
</svg>
