<?xml version="1.0" encoding="UTF-8" standalone="no"?>
<!-- Created with Inkscape (http://www.inkscape.org/) -->

<svg
   version="1.1"
   id="svg267083"
   width="668.57141"
   height="689.14288"
   viewBox="0 0 668.57141 689.14288"
   sodipodi:docname="blue-cir2.svg"
   inkscape:version="1.1.2 (b8e25be833, 2022-02-05)"
   xmlns:inkscape="http://www.inkscape.org/namespaces/inkscape"
   xmlns:sodipodi="http://sodipodi.sourceforge.net/DTD/sodipodi-0.dtd"
   xmlns="http://www.w3.org/2000/svg"
   xmlns:svg="http://www.w3.org/2000/svg">
  <defs
     id="defs267087">
    <rect
       x="-1120"
       y="20"
       width="60"
       height="140"
       id="rect182206" />
    <rect
       x="-1120"
       y="20"
       width="60"
       height="140"
       id="rect79798" />
  </defs>
  <sodipodi:namedview
     id="namedview267085"
     pagecolor="#ffffff"
     bordercolor="#666666"
     borderopacity="1.0"
     inkscape:pageshadow="2"
     inkscape:pageopacity="0.0"
     inkscape:pagecheckerboard="0"
     showgrid="false"
     inkscape:zoom="0.18827736"
     inkscape:cx="-528.47566"
     inkscape:cy="-329.30142"
     inkscape:window-width="1366"
     inkscape:window-height="705"
     inkscape:window-x="-8"
     inkscape:window-y="-8"
     inkscape:window-maximized="1"
     inkscape:current-layer="g267089" />
  <g
     inkscape:groupmode="layer"
     inkscape:label="Image"
     id="g267089">
    <rect
       style="fill:#ffffff;stroke-width:0.814669"
       id="rect182060"
       width="556.94098"
       height="427.09061"
       x="-45.850273"
       y="853.27563"
       inkscape:export-filename="C:\Users\HAROLD\Pictures\up-heal\cir-blk-white.png"
       inkscape:export-xdpi="27.692308"
       inkscape:export-ydpi="27.692308" />
    <rect
       style="fill:#ffffff;stroke-width:2.77091"
       id="rect182062"
       width="34.393547"
       height="22.323954"
       x="529.27148"
       y="365.88336"
       inkscape:export-filename="C:\Users\HAROLD\Pictures\up-heal\bl-cir2.png"
       inkscape:export-xdpi="27.692308"
       inkscape:export-ydpi="27.692308" />
    <ellipse
       style="fill:#000000;stroke:#000000;stroke-width:1.94624"
       id="ellipse182114"
       cx="339.89801"
       cy="362.17773"
       rx="278.29105"
       ry="212.33519"
       inkscape:export-filename="C:\Users\HAROLD\Pictures\up-heal\bl-cir2.png"
       inkscape:export-xdpi="27.692308"
       inkscape:export-ydpi="27.692308" />
    <text
       xml:space="preserve"
       style="font-size:99.9846px;line-height:1.25;font-family:sans-serif;fill:#ffffff;stroke-width:1.04151"
       x="-287.25208"
       y="268.48758"
       id="text182118"
       transform="matrix(0.43232872,-0.87663196,0.9472312,0.3923562,0,0)"
       inkscape:export-filename="C:\Users\HAROLD\Pictures\up-heal\bl-cir2.png"
       inkscape:export-xdpi="27.692308"
       inkscape:export-ydpi="27.692308"><tspan
         sodipodi:role="line"
         id="tspan182116"
         x="-287.25208"
         y="268.48758"
         style="fill:#ffffff;stroke-width:1.04151">U</tspan></text>
    <text
       xml:space="preserve"
       id="text182122"
       style="font-size:96px;line-height:1.25;font-family:sans-serif;white-space:pre;shape-inside:url(#rect182206);fill:#ffffff"
       transform="matrix(0.684088,-0.77304386,0.81304548,0.66026454,824.05437,-626.78559)"
       inkscape:transform-center-x="12.487805"
       inkscape:transform-center-y="-10.037346"
       inkscape:export-filename="C:\Users\HAROLD\Pictures\up-heal\bl-cir2.png"
       inkscape:export-xdpi="27.692308"
       inkscape:export-ydpi="27.692308"><tspan
         x="-1120"
         y="107.58371"
         id="tspan331297">P</tspan></text>
    <text
       xml:space="preserve"
       style="font-size:97.0478px;line-height:1.25;font-family:sans-serif;fill:#ffffff;stroke-width:1.01091"
       x="29.365282"
       y="325.58038"
       id="text182126"
       transform="matrix(0.88468444,-0.49722481,0.52753604,0.83385212,0,0)"
       inkscape:export-filename="C:\Users\HAROLD\Pictures\up-heal\bl-cir2.png"
       inkscape:export-xdpi="27.692308"
       inkscape:export-ydpi="27.692308"><tspan
         sodipodi:role="line"
         id="tspan182124"
         x="29.365282"
         y="325.58038"
         style="stroke-width:1.01091;fill:#ffffff">H</tspan></text>
    <text
       xml:space="preserve"
       style="font-size:97.0478px;line-height:1.25;font-family:sans-serif;fill:#ffffff;stroke-width:1.01091"
       x="187.96811"
       y="283.58817"
       id="text182130"
       transform="matrix(1.0045399,-0.21464399,0.22772886,0.9468209,0,0)"
       inkscape:export-filename="C:\Users\HAROLD\Pictures\up-heal\bl-cir2.png"
       inkscape:export-xdpi="27.692308"
       inkscape:export-ydpi="27.692308"><tspan
         sodipodi:role="line"
         id="tspan182128"
         x="187.96811"
         y="283.58817"
         style="stroke-width:1.01091;fill:#ffffff">E</tspan></text>
    <text
       xml:space="preserve"
       style="font-size:97.0478px;line-height:1.25;font-family:sans-serif;fill:#ffffff;stroke-width:1.01091"
       x="319.80411"
       y="192.93127"
       id="text182134"
       transform="matrix(1.0261504,0.08417803,-0.08930958,0.96718969,0,0)"
       inkscape:export-filename="C:\Users\HAROLD\Pictures\up-heal\bl-cir2.png"
       inkscape:export-xdpi="27.692308"
       inkscape:export-ydpi="27.692308"><tspan
         sodipodi:role="line"
         id="tspan182132"
         x="319.80411"
         y="192.93127"
         style="stroke-width:1.01091;fill:#ffffff">A</tspan></text>
    <text
       xml:space="preserve"
       style="font-size:97.0478px;line-height:1.25;font-family:sans-serif;fill:#ffffff;stroke-width:1.01091"
       x="414.70352"
       y="116.36575"
       id="text182138"
       transform="matrix(0.99052609,0.26628915,-0.28252235,0.93361232,0,0)"
       inkscape:export-filename="C:\Users\HAROLD\Pictures\up-heal\bl-cir2.png"
       inkscape:export-xdpi="27.692308"
       inkscape:export-ydpi="27.692308"><tspan
         sodipodi:role="line"
         id="tspan182136"
         x="414.70352"
         y="116.36575"
         style="stroke-width:1.01091;fill:#ffffff">L</tspan></text>
    <text
       xml:space="preserve"
       style="font-size:97.0478px;line-height:1.25;font-family:sans-serif;fill:#ffffff;stroke-width:1.01091"
       x="494.15308"
       y="-51.703091"
       id="text182142"
       transform="matrix(0.84616522,0.55359011,-0.58733742,0.79754615,0,0)"
       inkscape:export-filename="C:\Users\HAROLD\Pictures\up-heal\bl-cir2.png"
       inkscape:export-xdpi="27.692308"
       inkscape:export-ydpi="27.692308"><tspan
         sodipodi:role="line"
         id="tspan182140"
         x="494.15308"
         y="-51.703091"
         style="stroke-width:1.01091;fill:#ffffff">D</tspan></text>
    <text
       xml:space="preserve"
       style="font-size:97.0478px;line-height:1.25;font-family:sans-serif;fill:#ffffff;stroke-width:1.01091"
       x="504.39075"
       y="-235.82988"
       id="text182146"
       transform="matrix(0.60339095,0.78682783,-0.83479349,0.56872124,0,0)"
       inkscape:export-filename="C:\Users\HAROLD\Pictures\up-heal\bl-cir2.png"
       inkscape:export-xdpi="27.692308"
       inkscape:export-ydpi="27.692308"><tspan
         sodipodi:role="line"
         id="tspan182144"
         x="504.39075"
         y="-235.82988"
         style="stroke-width:1.01091;fill:#ffffff">A</tspan></text>
    <text
       xml:space="preserve"
       style="font-size:97.0478px;line-height:1.25;font-family:sans-serif;fill:#ffffff;stroke-width:1.01091"
       x="479.37607"
       y="-372.0535"
       id="text182150"
       transform="matrix(0.36671164,0.90723432,-0.96254008,0.34564108,0,0)"
       inkscape:export-filename="C:\Users\HAROLD\Pictures\up-heal\bl-cir2.png"
       inkscape:export-xdpi="27.692308"
       inkscape:export-ydpi="27.692308"><tspan
         sodipodi:role="line"
         id="tspan182148"
         x="479.37607"
         y="-372.0535"
         style="stroke-width:1.01091;fill:#ffffff">O</tspan></text>
    <path
       style="fill:#ffffff;stroke:#ffffff;stroke-width:2.61821px;stroke-linecap:butt;stroke-linejoin:miter;stroke-opacity:1"
       d="m 213.36998,279.16016 -26.9903,18.28662 -17.99357,18.28653 -11.99574,18.28663 -5.99782,27.42983 2.99891,22.85829 2.99891,16.0007 2.99891,11.42924 8.99683,11.42904 11.99565,13.71487 11.99584,11.42921 20.99238,13.71489 5.99792,4.57165 2.999,27.4299 -2.999,25.14409 -2.99891,11.42909 -5.99792,11.42908 -5.99773,9.14338 c 0,0 -4.24853,3.80969 -5.99792,6.85745 l 14.99456,6.85746 14.99475,6.85745 14.99465,4.57163 c 2.99881,2.28581 14.74477,1.71441 20.99248,2.28581 l 20.99257,2.28583 h 17.99347 20.99257 20.99257 20.99248 l 17.99356,-2.28583 v -9.14327 l 11.99574,-13.71491 11.99565,-5.71454 14.99475,-3.42872 14.99465,-4.57174 h 11.99574 l 14.99456,-2.28581 h 11.99584 l 11.99574,-2.28581 c 5.99782,-4.57165 5.99782,-11.42909 5.99782,-13.71491 l -2.99901,-6.85746 -2.99881,-6.85754 v -4.57164 c -2.99901,-2.28582 0,-4.57164 0,-4.57164 l 2.99881,-2.28581 h 5.99783 l 2.999,-4.57164 v -2.28581 l -5.99782,-2.28583 -2.99901,-2.28581 -2.99881,-2.28581 h 5.99782 2.99882 l 5.99801,-2.28583 v -4.57163 l -2.99901,-4.57174 -2.999,-4.57163 v -4.57163 l 2.999,-4.57164 h 5.99792 c 2.99882,-1.52387 8.99674,-2.28581 8.99674,-4.57164 4.4988,-0.65771 5.33803,-9.73726 0,-13.71489 l -2.99901,-2.28593 -8.99664,-9.14321 -5.99801,-6.85749 -5.99783,-6.85748 -5.99782,-9.14332 -2.99891,-9.14331 v -9.14332 -6.85738 -11.42914 -11.42925 l -2.99891,-13.71476 -5.99792,-13.71508 -5.99782,-11.42914 -5.99792,-9.14321 -14.99466,-13.71487 -17.99346,-11.42924 -20.99267,-9.14321 -17.99347,-6.85749 -17.99356,-4.57166 -14.99475,-2.28582 -26.9904,-2.28573 h -38.98604 l -20.99247,2.28573 -17.99357,2.28582 -20.99248,6.85759 -17.99375,6.85739"
       id="path182152"
       sodipodi:nodetypes="ccccccccccccccccccccccccccccccccccccccccccccccccccccccccccccccccccccccccccccccccccccccc"
       inkscape:export-filename="C:\Users\HAROLD\Pictures\up-heal\bl-cir2.png"
       inkscape:export-xdpi="27.692308"
       inkscape:export-ydpi="27.692308" />
    <text
       xml:space="preserve"
       style="font-size:98.905px;line-height:1.25;font-family:sans-serif;fill:#f9f9f9;stroke-width:1.03026"
       x="-266.28275"
       y="282.65689"
       id="text79710"
       transform="matrix(0.50547693,-0.8595064,0.87647757,0.48797859,0,0)"
       inkscape:export-filename="C:\Users\HAROLD\Pictures\up-heal\bl-cir2.png"
       inkscape:export-xdpi="27.692308"
       inkscape:export-ydpi="27.692308"><tspan
         sodipodi:role="line"
         id="tspan79708"
         x="-266.28275"
         y="282.65689"
         style="stroke-width:1.03026">U</tspan></text>
    <path
       style="fill:#0074ff;fill-opacity:1;stroke:#000000;stroke-width:3.75567"
       d="M 184.02761,536.85354 C 131.47469,508.2514 93.356252,469.21456 75.80699,426.02557 66.249191,402.50369 62.472449,383.13364 62.962893,360.15114 c 0.649112,-30.41783 -0.218169,-29.64199 20.570742,-18.40176 14.57661,7.88136 18.990835,9.40535 27.242385,9.40535 8.88658,0 10.53855,-0.69144 16.9354,-7.08827 7.89223,-7.89224 12.41636,-19.92496 10.44487,-27.77999 -1.99274,-7.93971 -11.45317,-16.01982 -32.62452,-27.86443 l -19.344102,-10.82235 4.576609,-7.74957 c 2.517136,-4.26227 5.30681,-7.97068 6.199277,-8.24091 0.892466,-0.27022 13.453016,9.12676 27.912326,20.88219 l 26.28966,21.37351 4.35797,-4.0358 4.35796,-4.0358 -4.39349,-3.77299 c -2.41642,-2.07514 -7.31812,-6.05904 -10.89266,-8.8531 l -6.49916,-5.08012 4.89687,-5.24796 c 7.03253,-7.53676 9.11143,-12.39823 9.11143,-21.30702 0,-6.62153 -1.14536,-9.00106 -7.29041,-15.14611 -5.51475,-5.51475 -8.83067,-7.30945 -13.61429,-7.36858 l -6.32388,-0.0782 7.51133,-6.66592 c 9.85487,-8.74568 33.04277,-25.1009 35.58726,-25.1009 1.09897,0 10.01294,12.67537 19.80881,28.16749 9.79587,15.49212 18.23965,28.14871 18.76396,28.12574 0.5243,-0.023 2.79461,-1.50176 5.04511,-3.28621 l 4.09183,-3.24445 -8.41018,-12.86513 c -4.6256,-7.07583 -8.14646,-13.65633 -7.82412,-14.62334 0.32233,-0.96701 6.64061,-5.10153 14.0406,-9.18782 l 13.45454,-7.42963 8.91437,14.07217 c 4.90291,7.7397 9.24495,14.07217 9.64899,14.07217 0.72994,0 8.41388,-3.82961 9.51232,-4.74086 0.31588,-0.26206 -6.11333,-10.96477 -14.28716,-23.7838 -21.97067,-34.45664 -21.22227,-30.56994 -6.80994,-35.36605 6.77182,-2.25352 12.50894,-3.79919 12.74915,-3.43483 0.24021,0.36436 3.73834,14.60539 7.77359,31.64672 4.03526,17.04133 7.46204,31.211 7.61505,31.48816 0.15304,0.27716 10.96633,-1.76175 24.02961,-4.53092 21.57493,-4.57348 23.75141,-5.40834 23.75141,-9.11066 0,-2.24169 -0.4265,-4.50231 -0.94778,-5.02359 -0.52129,-0.52128 -7.91525,0.58531 -16.43104,2.45909 -22.22214,4.88967 -21.45366,5.11352 -23.96441,-6.98076 -1.19628,-5.76235 -1.81692,-10.83511 -1.37921,-11.27281 0.4377,-0.4377 8.32373,-2.30992 17.52451,-4.16048 16.67482,-3.35383 19.80549,-5.539 16.11925,-11.25101 -1.25511,-1.94485 -4.94648,-1.66767 -18.7561,1.40837 -9.45639,2.10638 -17.5333,3.82978 -17.94866,3.82978 -0.41538,0 -1.30949,-2.32382 -1.9869,-5.16404 -0.67741,-2.84022 -1.63634,-6.53367 -2.13095,-8.20766 -0.7375,-2.49602 2.18195,-3.64211 16.22641,-6.37004 10.68667,-2.07573 18.31659,-4.60466 20.29301,-6.7261 2.54536,-2.73213 7.30436,-3.62379 24.23615,-4.54099 11.58789,-0.62772 21.06888,-0.65779 21.06888,-0.0668 0,0.59097 -6.81051,14.67548 -15.13445,31.29891 -8.32397,16.62343 -14.87118,30.48771 -14.54936,30.80952 0.32181,0.32181 2.73953,1.12583 5.37274,1.78672 4.32373,1.08519 5.22705,0.26349 9.32234,-8.48014 l 4.5347,-9.68176 14.14671,1.31515 c 7.7807,0.72334 14.69558,1.6479 15.36642,2.05458 0.67083,0.40668 2.2339,4.96715 3.4735,10.13437 2.14539,8.94295 2.5547,9.39496 8.50786,9.39496 6.16455,0 6.22888,-0.0873 4.49602,-6.10296 -12.16562,-42.23341 -16.93418,-60.07111 -16.24346,-60.76182 1.19815,-1.19817 12.33631,-1.17851 21.08038,0.0372 22.55155,3.13541 23.5816,3.43153 22.68238,6.5209 -0.48549,1.66803 -4.87046,16.34365 -9.74437,32.6125 -4.8739,16.26885 -8.5113,29.87645 -8.08308,30.2391 1.87385,1.58698 44.0539,12.06646 45.34812,11.26658 0.79055,-0.48858 1.43735,-2.81655 1.43735,-5.17326 0,-3.67634 -1.50912,-4.62267 -10.62519,-6.66275 -5.84383,-1.3078 -13.35982,-3.34357 -16.70218,-4.52395 l -6.077,-2.14613 8.24853,-27.06867 c 4.53669,-14.88778 8.60228,-27.42243 9.03463,-27.8548 2.23653,-2.23653 48.08508,12.79003 65.45299,21.45178 10.60543,5.28917 11.42096,2.80967 -10.70004,32.53278 -8.83951,11.87729 -16.03946,22.4401 -15.99989,23.47291 0.11023,2.87617 21.41345,15.55078 31.90564,18.9826 7.77282,2.54236 10.79859,2.6832 18.10736,0.84283 17.4227,-4.38709 27.18213,-16.12088 28.75812,-34.57598 l 0.93892,-10.99488 16.43492,15.39302 c 9.03923,8.46616 16.04392,16.02571 15.566,16.799 -0.47791,0.77329 -14.74563,5.02046 -31.70601,9.43817 -36.68594,9.55566 -37.33199,9.8585 -32.13841,15.06515 3.63715,3.64632 4.30863,3.70254 12.99593,1.08804 5.03836,-1.51632 9.73852,-2.39979 10.44483,-1.96326 0.70631,0.43652 4.91091,5.49456 9.34355,11.24009 l 8.05936,10.44641 -6.03451,8.40288 -6.03449,8.40289 3.79189,4.82062 3.79191,4.82061 9.0095,-12.57664 c 4.95524,-6.91715 14.23018,-19.76648 20.61098,-28.55405 l 11.60146,-15.97741 6.4463,10.10611 c 6.49859,10.18811 14.47985,25.04189 14.47985,26.94821 0,0.56657 -4.50952,0.50012 -10.02117,-0.14766 -21.99836,-2.58547 -46.02438,11.15581 -49.21174,28.14582 -2.59909,13.85436 6.40089,30.82204 19.18097,36.16189 13.3396,5.57365 36.68452,0.77802 47.73093,-9.80513 l 5.20985,-4.99135 1.29796,6.91872 c 0.71388,3.80528 0.71978,12.99222 0.0131,20.41543 -5.68805,59.74954 -38.56727,111.18967 -95.11276,148.80564 -17.58985,11.70138 -18.59845,11.93466 -18.67882,4.32103 -0.0366,-3.46716 -1.27424,-8.41645 -2.75025,-10.99847 -4.13963,-7.24152 -3.60011,-13.14483 1.20136,-13.14483 4.15461,0 8.96237,-4.76173 9.067,-8.98021 0.0329,-1.3243 -1.79299,-3.09316 -4.05741,-3.93083 -4.00172,-1.48033 -3.97539,-1.5586 0.93891,-2.79202 5.91593,-1.4848 6.77526,-7.29643 2.07182,-14.01152 -4.07956,-5.8244 -2.33885,-9.00789 5.7558,-10.52645 7.9719,-1.49555 14.12892,-6.93948 14.12892,-12.49259 0,-2.34798 -6.26582,-10.42321 -15.68476,-20.21412 -8.62662,-8.96729 -16.9801,-18.82688 -18.56328,-21.91023 -2.01467,-3.92368 -3.12006,-13.21397 -3.68335,-30.95682 -0.68198,-21.48097 -1.49048,-26.92732 -5.29639,-35.67883 -12.7862,-29.40116 -25.96669,-43.01079 -55.35844,-57.16083 -38.48565,-18.52809 -63.56178,-23.55779 -117.53543,-23.57491 -42.27298,-0.0133 -60.27843,2.21672 -84.9335,10.51972 -22.01997,7.41558 -38.62977,17.56091 -56.20763,34.33184 -16.45811,15.70259 -22.98913,26.18021 -26.80171,42.99764 -2.60582,11.49431 -2.76953,16.1891 -1.02238,29.31819 3.07309,23.09289 7.2104,37.03824 12.86884,43.37621 17.44,19.53434 27.52172,28.76967 40.96793,37.52858 13.79596,8.98673 15.32164,10.58339 16.41037,17.17391 1.82088,11.02252 1.47684,28.7649 -0.79876,41.19159 -2.165,11.82273 -10.32184,28.99962 -13.75014,28.95541 -1.12687,-0.0145 -8.38654,-3.47571 -16.1326,-7.69154 z"
       id="path272038"
       inkscape:export-filename="C:\Users\HAROLD\Pictures\up-heal\bl-cir2.png"
       inkscape:export-xdpi="27.692308"
       inkscape:export-ydpi="27.692308" />
    <path
       style="fill:#0074ff;fill-opacity:1;stroke:#000000;stroke-width:3.75567"
       d="m 105.4251,343.44546 c -1.54921,-0.53323 -10.63323,-5.23863 -20.186704,-10.45645 -12.135706,-6.62815 -17.369953,-10.5237 -17.369953,-12.92745 0,-5.56361 9.593324,-27.9009 11.936144,-27.79235 4.543125,0.21049 39.542253,21.74585 43.061363,26.49614 4.36923,5.89785 3.41125,12.22824 -2.90105,19.17038 -4.53099,4.98308 -10.0232,7.0643 -14.5398,5.50973 z"
       id="path273323"
       inkscape:export-filename="C:\Users\HAROLD\Pictures\up-heal\bl-cir2.png"
       inkscape:export-xdpi="27.692308"
       inkscape:export-ydpi="27.692308" />
    <path
       style="fill:#0074ff;fill-opacity:1;stroke:#000000;stroke-width:3.75567"
       d="m 119.67044,263.04532 -10.82019,-8.59898 7.47064,-7.04187 c 8.5145,-8.02582 12.54521,-8.67463 19.56874,-3.14992 6.50563,5.11733 6.42576,12.51022 -0.22559,20.87985 l -5.17342,6.50991 z"
       id="path273362"
       inkscape:export-filename="C:\Users\HAROLD\Pictures\up-heal\bl-cir2.png"
       inkscape:export-xdpi="27.692308"
       inkscape:export-ydpi="27.692308" />
    <path
       style="fill:#0074ff;fill-opacity:1;stroke:#000000;stroke-width:3.75567"
       d="m 186.16598,200.77091 c -3.24172,-5.21483 -5.89403,-9.83725 -5.89403,-10.27205 0,-1.13216 25.81922,-13.98258 28.09397,-13.98258 2.8477,0 11.9263,14.5684 10.79546,17.32344 -0.54041,1.31659 -6.8593,5.54806 -14.04197,9.40326 l -13.05939,7.00945 z"
       id="path273401"
       inkscape:export-filename="C:\Users\HAROLD\Pictures\up-heal\bl-cir2.png"
       inkscape:export-xdpi="27.692308"
       inkscape:export-ydpi="27.692308" />
    <path
       style="fill:#0074ff;fill-opacity:1;stroke:#000000;stroke-width:3.75567"
       d="m 343.24335,188.29731 -6.97245,-0.73247 6.90822,-13.96127 6.90822,-13.96127 4.24469,14.53995 c 2.33458,7.99697 4.26479,14.7512 4.28936,15.0094 0.0486,0.51105 -4.54026,0.24418 -15.37804,-0.89434 z"
       id="path273440"
       inkscape:export-filename="C:\Users\HAROLD\Pictures\up-heal\bl-cir2.png"
       inkscape:export-xdpi="27.692308"
       inkscape:export-ydpi="27.692308" />
    <path
       style="fill:#0074ff;fill-opacity:1;stroke:#000000;stroke-width:3.75567"
       d="m 482.26271,243.12155 c -4.83481,-2.51763 -9.24114,-5.30656 -9.79185,-6.19762 -0.72658,-1.17563 20.48919,-32.37777 28.13213,-41.37406 1.17701,-1.38542 13.9121,7.63966 18.53848,13.1378 6.33146,7.52451 6.34077,17.23022 0.0254,26.52406 -8.97795,13.21224 -21.54776,15.90638 -36.9042,7.90982 z"
       id="path273479"
       inkscape:export-filename="C:\Users\HAROLD\Pictures\up-heal\bl-cir2.png"
       inkscape:export-xdpi="27.692308"
       inkscape:export-ydpi="27.692308" />
    <path
       style="fill:#0074ff;fill-opacity:1;stroke:#000000;stroke-width:3.75567"
       d=""
       id="path273518" />
    <path
       style="fill:#0074ff;fill-opacity:1;stroke:#000000;stroke-width:3.75567"
       d="m 561.38568,345.99069 c -4.06568,-3.633 -6.0844,-7.44097 -6.80892,-12.84386 -0.89741,-6.6921 -0.27146,-8.54359 4.86695,-14.39591 6.13122,-6.98308 19.02644,-12.66418 28.74572,-12.66418 11.76068,0 22.10622,10.48693 22.10622,22.40834 0,6.08567 -10.57326,16.43673 -20.10818,19.68561 -13.35101,4.54914 -21.99562,3.89183 -28.80179,-2.19 z"
       id="path273557"
       inkscape:export-filename="C:\Users\HAROLD\Pictures\up-heal\bl-cir2.png"
       inkscape:export-xdpi="27.692308"
       inkscape:export-ydpi="27.692308" />
    <path
       style="fill:#0074ff;fill-opacity:1;stroke:#000000;stroke-width:3.75567"
       d="m 544.89499,271.84242 c -3.36255,-4.37507 -5.44469,-8.1751 -4.62698,-8.44453 8.33358,-2.74578 27.87579,-7.60028 28.41698,-7.05909 0.61575,0.61576 -16.18045,23.45828 -17.24897,23.45828 -0.23502,0 -3.17848,-3.5796 -6.54103,-7.95466 z"
       id="path273596"
       inkscape:export-filename="C:\Users\HAROLD\Pictures\up-heal\bl-cir2.png"
       inkscape:export-xdpi="27.692308"
       inkscape:export-ydpi="27.692308" />
    <path
       style="fill:#0074ff;fill-opacity:1;stroke:#000000;stroke-width:3.75567"
       d="m 395.99979,562.77482 c 7.25325,-7.63642 10.42947,-9.08052 31.20717,-14.18875 15.45377,-3.79932 56.67067,-8.9994 58.31309,-7.35699 1.58955,1.58956 -36.789,15.76855 -56.43526,20.85006 -10.32808,2.67136 -23.42596,5.42482 -29.10641,6.1188 l -10.32808,1.26179 z"
       id="path273635"
       inkscape:export-filename="C:\Users\HAROLD\Pictures\up-heal\bl-cir2.png"
       inkscape:export-xdpi="27.692308"
       inkscape:export-ydpi="27.692308" />
    <path
       style="fill:#0074ff;fill-opacity:1;stroke:#ffffff;stroke-width:3.75567;stroke-opacity:1"
       d="m 216.19799,386.19267 c -5.22156,-3.83998 -7.88127,-7.22803 -7.88127,-10.0395 0,-4.10616 0.73913,-4.28329 22.82882,-5.47105 45.23662,-2.43235 46.60716,-1.80136 27.13774,12.49408 -11.10074,8.15073 -12.83545,8.81242 -23.10297,8.81242 -9.44945,0 -12.27362,-0.86231 -18.98232,-5.79595 z"
       id="path273791"
       inkscape:export-filename="C:\Users\HAROLD\Pictures\up-heal\bl-cir2.png"
       inkscape:export-xdpi="27.692308"
       inkscape:export-ydpi="27.692308" />
    <path
       style="fill:#0074ff;fill-opacity:1;stroke:#000000;stroke-width:3.75567"
       d=""
       id="path273830" />
    <path
       style="fill:#0074ff;fill-opacity:1;stroke:#ffffff;stroke-width:3.75567;stroke-opacity:1"
       d="m 257.60983,409.84518 c -5.3801,-2.33841 -6.09211,-3.4974 -6.01136,-9.78512 0.0851,-6.62353 0.98835,-7.76904 12.65789,-16.05223 8.79987,-6.24626 14.40072,-8.9197 18.68672,-8.9197 3.36625,0 6.12045,0.58345 6.12045,1.29655 0,0.71311 -2.28674,8.31833 -5.08164,16.9005 -5.00437,15.3667 -5.17568,15.60394 -11.267,15.60394 -3.40194,0 -6.18536,0.84502 -6.18536,1.87783 0,2.44689 -1.53398,2.28837 -8.9197,-0.92177 z"
       id="path273869"
       inkscape:export-filename="C:\Users\HAROLD\Pictures\up-heal\bl-cir2.png"
       inkscape:export-xdpi="27.692308"
       inkscape:export-ydpi="27.692308" />
    <path
       style="fill:#0074ff;fill-opacity:1;stroke:#ffffff;stroke-width:3.75567;stroke-opacity:1"
       d="m 294.69703,410.89349 c 0,-1.1024 -2.48953,-2.00437 -5.53229,-2.00437 h -5.53228 l 2.92328,-9.85862 c 1.60781,-5.42225 4.18909,-13.02747 5.73618,-16.9005 2.76353,-6.91829 2.99052,-7.04187 12.93363,-7.04187 10.03986,0 10.16527,0.0713 15.6933,8.9197 5.15182,8.24625 5.30219,8.96392 1.9916,9.50532 -2.4815,0.4058 -3.75898,2.40181 -4.16074,6.50097 -0.5109,5.21263 -1.55913,6.1976 -8.82356,8.29103 -4.53409,1.30662 -9.81549,2.8745 -11.73646,3.48419 -1.92096,0.60969 -3.49266,0.20656 -3.49266,-0.89585 z"
       id="path273908"
       inkscape:export-filename="C:\Users\HAROLD\Pictures\up-heal\bl-cir2.png"
       inkscape:export-xdpi="27.692308"
       inkscape:export-ydpi="27.692308" />
    <path
       style="fill:#0074ff;fill-opacity:1;stroke:#ffffff;stroke-width:3.75567;stroke-opacity:1"
       d="m 326.95881,385.34841 c -3.79011,-6.08936 -5.05914,-10.17119 -4.45081,-14.31604 0.85086,-5.79724 0.85219,-5.79783 10.46236,-4.6431 5.28627,0.63519 12.35773,1.16223 15.71436,1.1712 8.24242,0.0221 8.00782,4.1402 -0.93892,16.48159 -9.15733,12.63189 -13.56537,12.90891 -20.78699,1.30635 z"
       id="path273947"
       inkscape:export-filename="C:\Users\HAROLD\Pictures\up-heal\bl-cir2.png"
       inkscape:export-xdpi="27.692308"
       inkscape:export-ydpi="27.692308" />
    <path
       style="fill:#0074ff;fill-opacity:1;stroke:#ffffff;stroke-width:3.75567;stroke-opacity:1"
       d="m 330.84531,362.44617 c -6.28319,-0.56591 -7.98079,-1.46468 -7.98079,-4.22526 0,-2.59152 2.4639,-4.22871 9.44297,-6.27457 13.68238,-4.01087 25.12591,0.0825 22.99638,8.22582 -0.99442,3.80269 -4.18875,4.09968 -24.45856,2.27401 z"
       id="path273986"
       inkscape:export-filename="C:\Users\HAROLD\Pictures\up-heal\bl-cir2.png"
       inkscape:export-xdpi="27.692308"
       inkscape:export-ydpi="27.692308" />
    <path
       style="fill:#0074ff;fill-opacity:1;stroke:#ffffff;stroke-width:3.75567;stroke-opacity:1"
       d="m 322.86452,344.01407 c 0,-4.79249 -0.81407,-6.4826 -3.12245,-6.4826 -1.71734,0 1.59781,-3.3801 7.36701,-7.51133 9.23268,-6.61138 11.74418,-7.51133 20.96186,-7.51133 5.75982,0 10.4724,-0.79373 10.4724,-1.76385 0,-0.97012 3.80261,-0.46817 8.45025,1.11543 4.64763,1.58361 8.45025,4.0457 8.45025,5.4713 0,4.71545 -11.44452,9.14377 -22.06454,8.53761 -9.50238,-0.54236 -9.85862,-0.38679 -9.85862,4.3054 0,2.67746 -0.63377,4.87725 -1.40838,4.88843 -0.7746,0.0113 -5.42224,1.2383 -10.32808,2.72693 l -8.9197,2.7066 z"
       id="path274025"
       inkscape:export-filename="C:\Users\HAROLD\Pictures\up-heal\bl-cir2.png"
       inkscape:export-xdpi="27.692308"
       inkscape:export-ydpi="27.692308" />
    <path
       style="fill:#0074ff;fill-opacity:1;stroke:#ffffff;stroke-width:3.75567;stroke-opacity:1"
       d="m 287.85768,327.78876 c -8.23615,-13.6777 -6.76767,-14.66911 21.72788,-14.66911 22.26904,0 22.66733,0.0744 22.62343,4.22512 -0.0686,6.48271 -21.09961,20.1867 -30.97984,20.1867 -7.03635,0 -7.871,-0.60814 -13.37147,-9.74271 z"
       id="path274064"
       inkscape:export-filename="C:\Users\HAROLD\Pictures\up-heal\bl-cir2.png"
       inkscape:export-xdpi="27.692308"
       inkscape:export-ydpi="27.692308" />
    <path
       style="fill:#0074ff;fill-opacity:1;stroke:#ffffff;stroke-width:3.75567;stroke-opacity:1"
       d="m 250.99306,337.78824 c -10.09427,-4.64249 -18.05699,-9.3296 -17.69492,-10.4158 0.9208,-2.76242 27.06629,-10.47368 35.55513,-10.48652 6.17248,-0.009 7.60065,0.91187 11.85023,7.64365 7.9798,12.64081 7.93419,13.0019 -1.64242,13.0019 -7.49114,0 -8.59857,0.52804 -9.12061,4.34883 -0.59022,4.31981 -0.71665,4.29251 -18.94741,-4.09206 z"
       id="path274103"
       inkscape:export-filename="C:\Users\HAROLD\Pictures\up-heal\bl-cir2.png"
       inkscape:export-xdpi="27.692308"
       inkscape:export-ydpi="27.692308" />
    <path
       style="fill:#0074ff;fill-opacity:1;stroke:#ffffff;stroke-width:3.75567;stroke-opacity:1"
       d="m 208.31672,364.10804 c 0,-2.34151 -1.18525,-4.04257 -2.81675,-4.04257 -4.03266,0 -3.61429,-1.22711 3.9156,-11.48487 6.29459,-8.57496 7.2714,-9.1713 15.02266,-9.1713 5.93669,0 8.29031,-0.76231 8.29031,-2.68514 0,-1.93105 5.27375,-0.25753 18.77833,5.95893 l 18.77833,8.64408 v 7.1859 7.18589 l -9.85862,0.008 c -5.42224,0.005 -19.36515,0.55632 -30.98424,1.22583 -20.75048,1.19576 -21.12562,1.14559 -21.12562,-2.8252 z"
       id="path274142"
       inkscape:export-filename="C:\Users\HAROLD\Pictures\up-heal\bl-cir2.png"
       inkscape:export-xdpi="27.692308"
       inkscape:export-ydpi="27.692308" />
    <path
       style="fill:#0074ff;fill-opacity:1;stroke:#ffffff;stroke-width:3.75567;stroke-opacity:1"
       d="m 377.32167,361.9433 c 0,-3.06777 -1.25189,-3.75567 -6.83486,-3.75567 -7.5355,0 -11.99034,-4.10973 -10.52574,-9.71035 0.80073,-3.06202 3.11448,-3.43448 21.33528,-3.43448 19.18526,0 20.43714,0.23006 20.43714,3.75567 0,3.0403 1.25189,3.75566 6.57242,3.75566 4.59026,0 6.57241,0.8495 6.57241,2.81675 0,1.87784 -1.87783,2.81675 -5.63349,2.81675 -4.38161,0 -5.6335,0.83459 -5.6335,3.75567 0,3.39798 -1.25189,3.75566 -13.14483,3.75566 -11.89294,0 -13.14483,-0.35768 -13.14483,-3.75566 z"
       id="path274220"
       inkscape:export-filename="C:\Users\HAROLD\Pictures\up-heal\bl-cir2.png"
       inkscape:export-xdpi="27.692308"
       inkscape:export-ydpi="27.692308" />
    <path
       style="fill:#0074ff;fill-opacity:1;stroke:#ffffff;stroke-width:3.75567;stroke-opacity:1"
       d="m 372.62709,336.64154 c 4.13123,-2.54449 9.62389,-4.64957 12.20591,-4.67794 4.34743,-0.0478 16.90049,6.15951 16.90049,8.35702 0,0.53158 -8.23899,0.96219 -18.30887,0.9569 l -18.30886,-0.01 7.51133,-4.62635 z"
       id="path274259"
       inkscape:export-filename="C:\Users\HAROLD\Pictures\up-heal\bl-cir2.png"
       inkscape:export-xdpi="27.692308"
       inkscape:export-ydpi="27.692308" />
    <path
       style="fill:#0074ff;fill-opacity:1;stroke:#ffffff;stroke-width:3.75567;stroke-opacity:1"
       d="m 295.3194,427.68892 c -2.81834,-2.67574 -6.25049,-3.3566 -15.62074,-3.09881 -6.60484,0.18169 -12.55835,-0.52237 -13.23004,-1.5646 -0.67168,-1.04224 -7.07651,-1.80088 -14.23295,-1.68587 -8.14425,0.13088 -13.88669,-0.66626 -15.3507,-2.1309 -1.28644,-1.287 -4.52557,-3.17134 -7.19807,-4.18742 -2.6725,-1.01608 -5.85712,-4.18821 -7.07694,-7.04916 -3.7405,-8.77296 -7.31891,-11.77416 -14.03865,-11.77416 -7.76736,0 -18.60276,-9.10438 -20.36063,-17.1079 -0.65547,-2.98436 -1.96965,-5.4261 -2.9204,-5.4261 -0.95074,0 -1.72862,-1.26753 -1.72862,-2.81675 0,-1.54921 -0.8949,-2.81674 -1.98866,-2.81674 -1.09376,0 -1.47443,-0.83205 -0.84592,-1.84899 0.6285,-1.01695 1.85333,-5.45333 2.72183,-9.85862 l 1.57909,-8.00964 0.20574,9.85862 0.20575,9.85863 h 13.83845 c 13.36868,0 14.16549,0.2604 23.47291,7.67107 8.98087,7.15068 9.63446,8.23348 9.63446,15.96158 v 8.2905 h 16.02189 c 20.8283,0 29.04609,3.16058 29.04609,11.17118 v 5.72932 h 14.08375 14.08375 v -6.32497 c 0,-6.1172 0.35467,-6.41869 10.79753,-9.17867 5.9542,-1.57364 14.448,-2.43176 18.93572,-1.91303 l 8.13819,0.94067 -7.66873,7.3688 c -6.50317,6.24883 -9.17569,11.21443 -7.19926,13.37639 0.2582,0.28245 -1.22059,2.2939 -3.28621,4.4699 -5.357,5.64328 -24.84866,7.00403 -30.01863,2.09567 z"
       id="path274298"
       inkscape:export-filename="C:\Users\HAROLD\Pictures\up-heal\bl-cir2.png"
       inkscape:export-xdpi="27.692308"
       inkscape:export-ydpi="27.692308" />
    <path
       style="fill:#ff7993;fill-opacity:1;stroke:#ff7993;stroke-width:2.13501px;stroke-linecap:butt;stroke-linejoin:miter;stroke-opacity:1"
       d="m 232.65793,301.13205 -14.00888,8.13463 -14.00852,8.13474 -14.00888,16.26938 -5.60365,14.64246 -2.80139,17.89628 c 0,0 -1.86812,8.67708 2.80139,11.38855 l 5.60365,13.01556 5.60366,4.88083 8.40522,3.2538 11.20713,1.62702 2.80139,4.88081 2.80192,6.50774 8.40521,4.88082 8.4054,3.25381 8.40522,1.62701 8.40521,-1.62701 8.40524,1.62701 2.80173,1.62691 8.40539,1.62689 h 8.40523 v 0 h 5.60329 v 1.62691 l 8.40541,3.25392 h 11.20713 5.60348 l 5.60348,-3.25392 2.80156,-6.50772 2.80192,-6.50774 5.60347,-6.50772 5.60349,-4.88082 11.20695,-1.6269 14.00888,1.6269 h 8.4054 l 5.60312,-1.6269 8.40539,-3.25393 8.40539,-3.25391 5.60313,-3.25381 v -6.50784 -3.25381 -3.25391 l 5.60384,-1.62691 8.40522,-1.6269 h 5.60348 11.20697 l 14.00886,-4.88082 8.40523,-6.50784 2.80174,-6.50773 2.80173,-11.38855 -2.80173,-8.13474 -5.60347,-9.76153 -8.40524,-6.50784 -14.00869,-8.13463 -14.00888,-6.50773 -22.41392,-6.50784 -22.41409,-6.50772 -30.81931,-3.25392 -39.22453,-1.6269 -25.21566,3.25392 -19.61218,4.88082 z"
       id="path64606"
       sodipodi:nodetypes="cccccccccccccccccccccccccccccccccccccccccccccccccccccccccccccc"
       inkscape:export-filename="C:\Users\HAROLD\Pictures\up-heal\bl-cir2.png"
       inkscape:export-xdpi="27.692308"
       inkscape:export-ydpi="27.692308" />
    <rect
       style="fill:#0074ff;fill-opacity:1;stroke:#0074ff;stroke-width:2;stroke-opacity:1"
       id="rect308426"
       width="19.25351"
       height="20.581339"
       x="267.5574"
       y="322.66226"
       inkscape:export-filename="C:\Users\HAROLD\Pictures\up-heal\bl-cir2.png"
       inkscape:export-xdpi="27.692308"
       inkscape:export-ydpi="27.692308" />
    <rect
       style="fill:#0074ff;fill-opacity:1;stroke:#0074ff;stroke-width:2;stroke-opacity:1"
       id="rect308428"
       width="11.950455"
       height="13.278283"
       x="351.21057"
       y="308.72009"
       inkscape:export-filename="C:\Users\HAROLD\Pictures\up-heal\bl-cir2.png"
       inkscape:export-xdpi="27.692308"
       inkscape:export-ydpi="27.692308" />
    <rect
       style="fill:#0074ff;fill-opacity:1;stroke:#0074ff;stroke-width:2;stroke-opacity:1"
       id="rect308430"
       width="15.93394"
       height="13.942197"
       x="406.97937"
       y="334.61273"
       inkscape:export-filename="C:\Users\HAROLD\Pictures\up-heal\bl-cir2.png"
       inkscape:export-xdpi="27.692308"
       inkscape:export-ydpi="27.692308" />
    <rect
       style="fill:#0074ff;fill-opacity:1;stroke:#0074ff;stroke-width:3.10892;stroke-opacity:1"
       id="rect308432"
       width="20.050627"
       height="20.976147"
       x="208.87119"
       y="364.66208"
       inkscape:export-filename="C:\Users\HAROLD\Pictures\up-heal\bl-cir2.png"
       inkscape:export-xdpi="27.692308"
       inkscape:export-ydpi="27.692308" />
    <rect
       style="fill:#0074ff;fill-opacity:1;stroke:#0074ff;stroke-width:2;stroke-opacity:1"
       id="rect308434"
       width="28.197445"
       height="31.48217"
       x="298.76135"
       y="353.86624"
       inkscape:export-filename="C:\Users\HAROLD\Pictures\up-heal\bl-cir2.png"
       inkscape:export-xdpi="27.692308"
       inkscape:export-ydpi="27.692308" />
    <rect
       style="fill:#0074ff;fill-opacity:1;stroke:#0074ff;stroke-width:2;stroke-opacity:1"
       id="rect308436"
       width="17.925682"
       height="16.597853"
       x="218.42775"
       y="325.31793"
       inkscape:export-filename="C:\Users\HAROLD\Pictures\up-heal\bl-cir2.png"
       inkscape:export-xdpi="27.692308"
       inkscape:export-ydpi="27.692308" />
    <rect
       style="fill:#0074ff;fill-opacity:1;stroke:#0074ff;stroke-width:2;stroke-opacity:1"
       id="rect308438"
       width="16.597853"
       height="17.925682"
       x="252.95129"
       y="385.73413"
       inkscape:export-filename="C:\Users\HAROLD\Pictures\up-heal\bl-cir2.png"
       inkscape:export-xdpi="27.692308"
       inkscape:export-ydpi="27.692308" />
    <rect
       style="fill:#0074ff;fill-opacity:1;stroke:#0074ff;stroke-width:2;stroke-opacity:1"
       id="rect308440"
       width="21.909166"
       height="21.245253"
       x="362.49713"
       y="360.50537"
       inkscape:export-filename="C:\Users\HAROLD\Pictures\up-heal\bl-cir2.png"
       inkscape:export-xdpi="27.692308"
       inkscape:export-ydpi="27.692308" />
    <rect
       style="fill:#0074ff;fill-opacity:1;stroke:#0074ff;stroke-width:2;stroke-opacity:1"
       id="rect308442"
       width="19.917425"
       height="17.925682"
       x="310.71182"
       y="308.05615"
       inkscape:export-filename="C:\Users\HAROLD\Pictures\up-heal\bl-cir2.png"
       inkscape:export-xdpi="27.692308"
       inkscape:export-ydpi="27.692308" />
    <path
       style="fill:none;stroke:#0074ff;stroke-width:2;stroke-linecap:butt;stroke-linejoin:miter;stroke-opacity:1;stroke-miterlimit:4;stroke-dasharray:none"
       d="m 218.76752,375.80129 42.48597,20.42143 52.10986,-25.8202 -36.14829,-36.85247 h -49.99729 z"
       id="path324638"
       inkscape:export-filename="C:\Users\HAROLD\Pictures\up-heal\bl-cir2.png"
       inkscape:export-xdpi="27.692308"
       inkscape:export-ydpi="27.692308" />
    <path
       style="fill:none;stroke:#0074ff;stroke-width:2;stroke-linecap:butt;stroke-linejoin:miter;stroke-opacity:1;stroke-miterlimit:4;stroke-dasharray:none"
       d="m 313.36335,370.40252 62.67266,3.2862 -54.69188,-56.10025 -44.12907,15.96158 138.02071,7.74606 -41.07759,31.92316 -17.13522,-57.2739 57.03917,25.11601 z"
       id="path325681"
       inkscape:export-filename="C:\Users\HAROLD\Pictures\up-heal\bl-cir2.png"
       inkscape:export-xdpi="27.692308"
       inkscape:export-ydpi="27.692308" />
    <path
       style="fill:none;stroke:#0074ff;stroke-width:2;stroke-linecap:butt;stroke-linejoin:miter;stroke-opacity:1;stroke-miterlimit:4;stroke-dasharray:none"
       d="m 357.02296,315.94537 -35.67883,1.6431 -7.98078,52.81405 z"
       id="path327660"
       inkscape:export-filename="C:\Users\HAROLD\Pictures\up-heal\bl-cir2.png"
       inkscape:export-xdpi="27.692308"
       inkscape:export-ydpi="27.692308" />
    <path
       style="fill:none;stroke:#0074ff;stroke-width:2;stroke-linecap:butt;stroke-linejoin:miter;stroke-opacity:1;stroke-miterlimit:4;stroke-dasharray:none"
       d="m 227.21777,333.55005 86.14558,36.85247 -94.59583,5.39877 58.44754,-42.25124 -15.96157,62.67267"
       id="path327662"
       inkscape:export-filename="C:\Users\HAROLD\Pictures\up-heal\bl-cir2.png"
       inkscape:export-xdpi="27.692308"
       inkscape:export-ydpi="27.692308" />
  </g>
</svg>
