<?xml version="1.0" encoding="UTF-8" standalone="no"?>
<!-- Created with Inkscape (http://www.inkscape.org/) -->

<svg
   version="1.1"
   id="svg267083"
   width="668.57141"
   height="689.14288"
   viewBox="0 0 668.57141 689.14288"
   sodipodi:docname="pink-cir.svg"
   inkscape:version="1.1.2 (b8e25be833, 2022-02-05)"
   inkscape:export-filename="C:\Users\HAROLD\Pictures\up-heal\PNG\blue-cr.png"
   inkscape:export-xdpi="27.692308"
   inkscape:export-ydpi="27.692308"
   xmlns:inkscape="http://www.inkscape.org/namespaces/inkscape"
   xmlns:sodipodi="http://sodipodi.sourceforge.net/DTD/sodipodi-0.dtd"
   xmlns="http://www.w3.org/2000/svg"
   xmlns:svg="http://www.w3.org/2000/svg">
  <defs
     id="defs267087">
    <rect
       x="-1120"
       y="20"
       width="60"
       height="140"
       id="rect182206" />
    <rect
       x="-1120"
       y="20"
       width="60"
       height="140"
       id="rect79798" />
    <clipPath
       clipPathUnits="userSpaceOnUse"
       id="clipPath79022">
      <g
         inkscape:label="Clip"
         id="use79024">
        <path
           id="path5917"
           style="fill:#0074ff;fill-opacity:1;stroke:#ffffff;stroke-width:0;stroke-miterlimit:4;stroke-dasharray:none;stroke-opacity:1"
           d="m 48.824219,-345.84375 v 60.1543 c 16.587632,0.39267 33.190646,-0.13262 49.761719,1.27929 3.966182,1.25145 8.335402,2.02813 11.654292,5.1211 3.23779,1.88461 6.24996,6.13443 6.66211,8.91015 1.30821,4.24852 1.20314,8.19147 0.97852,12.10743 0.43929,6.56336 -1.1213,16.06721 -6.55664,20.66992 -3.57284,4.31185 -10.12572,5.80129 -17.363282,6.64258 l -45.136719,0.15039 V -54.779297 H 225.33984 V -345.84375 Z m 104.302731,42.66992 69.79688,0.25391 -0.0332,9.28125 -27.375,-0.0996 -0.12695,34.82812 27.375,0.0996 -0.0332,9.28125 -69.79688,-0.2539 0.0352,-9.28125 34.16992,0.125 0.12695,-34.82813 -34.17187,-0.125 z m -104.302731,26.88867 v 35.56641 l 19.933593,0.42969 23.007813,-0.0957 7.408203,-0.81835 c 2.315472,-1.32166 5.475412,-2.09677 7.234372,-4.57813 1.19306,-2.72784 3.10298,-4.88864 3.41602,-7.92578 0.57995,-3.15458 1.25372,-6.23727 0.63672,-10.32031 -2.05535,-4.21666 -4.68859,-6.96303 -7.72266,-8.69336 0.86063,-0.83313 -11.913148,-3.02054 -14.158202,-2.69532 -1.807637,0.26186 -37.738493,-0.80895 -39.755859,-0.86914 z m 104.042971,45.25196 69.79492,0.2539 -0.16602,45.98242 -8.25,-0.0293 0.13282,-36.70313 -19.125,-0.0684 -0.13282,36.70313 -8.25,-0.0312 0.13282,-36.70313 -25.92188,-0.0937 -0.13281,36.70313 -8.25,-0.0293 z m -0.19141,52.54687 69.70508,25.65821 -0.0449,12.375 -69.88867,25.15429 0.0351,-9.89062 19.47852,-6.77344 0.10937,-30.1875 -19.42773,-6.91406 z m 27.35352,19.17774 -0.0899,24.51562 34.31055,-12.11133 z m -27.6211,54.60351 69.79688,0.25196 -0.0332,9.281245 -61.54688,-0.222656 -0.12695,34.875 -8.25,-0.0293 z" />
      </g>
    </clipPath>
  </defs>
  <sodipodi:namedview
     id="namedview267085"
     pagecolor="#ffffff"
     bordercolor="#666666"
     borderopacity="1.0"
     inkscape:pageshadow="2"
     inkscape:pageopacity="0.0"
     inkscape:pagecheckerboard="0"
     showgrid="false"
     inkscape:zoom="0.37655472"
     inkscape:cx="-67.719241"
     inkscape:cy="431.54419"
     inkscape:window-width="1289"
     inkscape:window-height="728"
     inkscape:window-x="26"
     inkscape:window-y="0"
     inkscape:window-maximized="0"
     inkscape:current-layer="layer1"
     showguides="true"
     inkscape:guide-bbox="true" />
  <g
     inkscape:groupmode="layer"
     inkscape:label="Image"
     id="g267089">
    <rect
       style="fill:#ffffff;stroke-width:0.814669"
       id="rect182060"
       width="556.94098"
       height="427.09061"
       x="-45.850273"
       y="853.27563"
       inkscape:export-filename="C:\Users\HAROLD\Pictures\up-heal\cir-blk-white.png"
       inkscape:export-xdpi="27.692308"
       inkscape:export-ydpi="27.692308" />
    <path
       style="fill:#0074ff;fill-opacity:1;stroke:#000000;stroke-width:3.75567"
       d=""
       id="path273518" />
    <path
       style="fill:#0074ff;fill-opacity:1;stroke:#000000;stroke-width:3.75567"
       d=""
       id="path273830" />
  </g>
  <g
     inkscape:groupmode="layer"
     id="layer1"
     inkscape:label="Image 1">
    <rect
       style="fill:#ffffff;stroke-width:2.77091"
       id="rect182062"
       width="34.393547"
       height="22.323954"
       x="548.09167"
       y="1147.6504"
       inkscape:export-filename="C:\Users\HAROLD\Pictures\up-heal\bl-cir2.png"
       inkscape:export-xdpi="27.692308"
       inkscape:export-ydpi="27.692308" />
    <path
       style="fill:#ffffff;stroke:#ffffff;stroke-width:2.61821px;stroke-linecap:butt;stroke-linejoin:miter;stroke-opacity:1"
       d="m 232.19012,1060.9271 -26.9903,18.2867 -17.99357,18.2865 -11.99574,18.2866 -5.99782,27.4299 2.99891,22.8582 2.99891,16.0007 2.99891,11.4293 8.99683,11.429 11.99565,13.7149 11.99584,11.4292 20.99238,13.7149 5.99792,4.5716 2.999,27.4299 -2.999,25.1441 -2.99891,11.4291 -5.99792,11.4291 -5.99773,9.1434 c 0,0 -4.24853,3.8097 -5.99792,6.8574 l 14.99456,6.8575 14.99475,6.8574 14.99465,4.5717 c 2.99881,2.2858 14.74477,1.7144 20.99248,2.2858 l 20.99257,2.2858 h 17.99347 20.99257 20.99257 20.99248 l 17.99356,-2.2858 v -9.1433 l 11.99574,-13.7149 11.99565,-5.7145 14.99475,-3.4288 14.99465,-4.5717 h 11.99574 l 14.99456,-2.2858 h 11.99584 l 11.99574,-2.2858 c 5.99782,-4.5717 5.99782,-11.4291 5.99782,-13.7149 l -2.99901,-6.8575 -2.99881,-6.8575 v -4.5717 c -2.99901,-2.2858 0,-4.5716 0,-4.5716 l 2.99881,-2.2858 h 5.99783 l 2.999,-4.5717 v -2.2858 l -5.99782,-2.2858 -2.99901,-2.2858 -2.99881,-2.2858 h 5.99782 2.99882 l 5.99801,-2.2859 v -4.5716 l -2.99901,-4.5717 -2.999,-4.5717 v -4.5716 l 2.999,-4.5716 h 5.99792 c 2.99882,-1.5239 8.99674,-2.2858 8.99674,-4.5717 4.4988,-0.6577 5.33803,-9.7372 0,-13.7149 l -2.99901,-2.2859 -8.99664,-9.1432 -5.99801,-6.8575 -5.99783,-6.8575 -5.99782,-9.1433 -2.99891,-9.1433 v -9.1433 -6.8574 -11.4291 -11.4293 l -2.99891,-13.7147 -5.99792,-13.7151 -5.99782,-11.4292 -5.99792,-9.1432 -14.99466,-13.7148 -17.99346,-11.4293 -20.99267,-9.1432 -17.99347,-6.8575 -17.99356,-4.5717 -14.99475,-2.2858 -26.9904,-2.2857 h -38.98604 l -20.99247,2.2857 -17.99357,2.2858 -20.99248,6.8576 -17.99375,6.8574"
       id="path182152"
       sodipodi:nodetypes="ccccccccccccccccccccccccccccccccccccccccccccccccccccccccccccccccccccccccccccccccccccccc"
       inkscape:export-filename="C:\Users\HAROLD\Pictures\up-heal\bl-cir2.png"
       inkscape:export-xdpi="27.692308"
       inkscape:export-ydpi="27.692308" />
    <rect
       style="fill:#ffffff;fill-opacity:1;stroke:#ffffff;stroke-width:0;stroke-miterlimit:4;stroke-dasharray:none;stroke-opacity:1"
       id="rect67804"
       width="163.37146"
       height="0"
       x="-266.65225"
       y="-11.266996" />
    <path
       style="fill:none;stroke:#ffffff;stroke-width:1px;stroke-linecap:butt;stroke-linejoin:miter;stroke-opacity:1"
       d="m -180.0974,96.018356 34.61303,60.514924 8.64487,-5.21508 c -2.14661,-9.9938 -0.8735,0.57163 -17.50988,-29.19469 11.35362,-1.55871 20.23005,-11.12038 30.30146,-16.52044 l 16.14148,29.16615 8.324576,-5.30229 -34.787446,-59.874314 -6.8111,4.16618 c -3.53087,-3.77326 13.85612,24.37227 12.41292,24.53846 -10.18469,6.615054 -29.04814,16.545694 -28.81652,16.752744 l -15.09104,-23.547454 z"
       id="path72155"
       sodipodi:nodetypes="ccccccccccccc" />
    <path
       style="fill:none;stroke:#ffffff;stroke-width:1px;stroke-linecap:butt;stroke-linejoin:miter;stroke-opacity:1"
       d="m -97.379918,190.22489 2.30011,6.15679 33.5869,-12.04652 3.06847,6.87205 -34.30215,12.81488 c 8.23546,23.38127 10.93657,24.6971 9.6402,24.46289 l 33.4226,-12.48629 3.39706,7.75159 -42.43792,15.8543 -24.095522,-65.16827 42.877682,-16.0186 2.84858,6.95419 -34.275602,13.55667 z"
       id="path72157"
       sodipodi:nodetypes="cccccccccccccc" />
    <path
       style="fill:#ffffff;fill-opacity:1;stroke:#ffffff;stroke-width:1.20947"
       d=""
       id="path7616" />
    <path
       style="fill:#ffffff;fill-opacity:1;stroke:#ffffff;stroke-width:1.20947"
       d=""
       id="path7694" />
    <path
       style="fill:#ffffff;fill-opacity:1;stroke:#ffffff;stroke-width:1.20947"
       d=""
       id="path7733" />
    <g
       id="g8500"
       inkscape:export-filename="C:\Users\HAROLD\Pictures\up-heal\PNG\pink-cir.png"
       inkscape:export-xdpi="27.692308"
       inkscape:export-ydpi="27.692308">
      <ellipse
         style="fill:#ffffff;fill-opacity:1;stroke:#0074ff;stroke-width:0;stroke-miterlimit:4;stroke-dasharray:none;stroke-opacity:1"
         id="path50738"
         cx="318.67877"
         cy="435.52768"
         rx="257.59869"
         ry="236.35342" />
      <ellipse
         style="fill:#ff8592;fill-opacity:1;stroke:#0074ff;stroke-width:0;stroke-miterlimit:4;stroke-dasharray:none;stroke-opacity:1"
         id="path58387"
         cx="344.60992"
         cy="409.95667"
         rx="306.08673"
         ry="262.89661" />
      <path
         id="path53358"
         style="fill:#ffffff;stroke:#0074ff;stroke-width:0"
         d="m 310.25008,319.94283 c -11.96629,0.56271 -23.26824,0.62709 -40.3457,5.024 -16.63242,2.63487 -28.9742,8.48841 -40.3457,15.0698 -9.31055,5.60806 -18.62109,12.49971 -27.93164,20.096 -13.42012,12.61363 -24.51311,25.82035 -31.03516,40.19201 -3.18511,9.5181 -5.72781,20.41943 -6.20703,30.144 1.46866,14.23467 -0.79973,28.46933 6.20703,42.704 l 3.10352,12.56 c 5.72411,11.25889 13.98441,19.61615 21.7246,27.62981 9.95477,10.07179 17.59325,17.80005 12.41407,12.56 l 27.93164,20.09599 3.10351,30.144 -3.10351,27.632 -9.31055,25.12 -12.41406,17.584 c 15.77496,7.38828 32.57624,17.52641 46.55273,20.09601 l 23.96875,3.99766 c 11.88497,0.69211 32.51305,1.66509 52.44922,2.61529 23.67524,3.05629 46.64978,-1.2312 69.44727,-4.10095 v -10.04801 l 12.41406,-15.072 c 19.91251,-9.06181 38.29021,-13.3248 55.86328,-15.072 13.82387,-1.43017 29.50698,-1.64913 40.3457,-5.02399 6.98763,-3.79409 7.07762,-9.31296 6.20704,-15.072 2.55766,6.21052 -1.12126,-2.72265 -6.20704,-15.072 -0.91207,-2.46433 -0.21546,-6.35203 3.10352,-12.56 h 6.20703 c 4.35553,-5.94544 3.35181,-6.35022 3.10352,-7.53601 l -12.41407,-7.53599 c 10.37638,0.17151 14.13751,0.25512 15.51758,-2.512 v -5.02401 c -12.45903,-21.13158 -2.88303,-12.70864 -3.10351,-20.09599 31.79389,2.09668 19.90123,-21.13866 12.41406,-22.60801 l -8.37109,-12.62373 -19.56055,-22.54207 -3.10352,-10.048 v -42.704 c -1.35918,-13.17645 -5.35653,-21.62138 -9.31054,-30.14401 -5.00838,-11.19717 -8.78971,-17.23277 -12.41407,-22.608 -9.62449,-11.34302 -21.20777,-20.30616 -34.13867,-27.632 -17.80488,-9.61776 -35.94706,-18.85599 -58.9668,-22.6058 -14.48306,-3.04 -28.96614,-3.89905 -43.44921,-5.024 z" />
      <path
         style="fill:#0074ff;fill-opacity:1;stroke:#ffffff;stroke-width:4.22469;stroke-opacity:1"
         d="m 213.58827,445.35892 c -5.70345,-4.44849 -8.60858,-8.37347 -8.60858,-11.63036 0,-4.75687 0.80741,-4.96203 24.93542,-6.33805 49.41112,-2.81773 50.90809,-2.08685 29.64206,14.47391 -12.12517,9.44226 -14.01995,10.20882 -25.23493,10.20882 -10.32138,0 -13.4062,-0.99894 -20.73397,-6.71432 z"
         id="path273791"
         inkscape:export-filename="C:\Users\HAROLD\Pictures\up-heal\PNG\blue-cr.png"
         inkscape:export-xdpi="27.692308"
         inkscape:export-ydpi="27.692308" />
      <path
         style="fill:#0074ff;fill-opacity:1;stroke:#ffffff;stroke-width:4.22469;stroke-opacity:1"
         d="m 258.82152,472.75941 c -5.87657,-2.70896 -6.65427,-4.05161 -6.56602,-11.33578 0.0928,-7.67306 1.0795,-9.00007 13.82597,-18.59583 9.61184,-7.23597 15.72958,-10.33312 20.41109,-10.33312 3.67683,0 6.68519,0.67596 6.68519,1.50206 0,0.8261 -2.49772,9.63642 -5.55053,19.57856 -5.4662,17.80171 -5.65331,18.07649 -12.30671,18.07649 -3.71582,0 -6.75618,0.9789 -6.75618,2.17536 0,2.83463 -1.67545,2.65102 -9.74281,-1.06774 z"
         id="path273869"
         inkscape:export-filename="C:\Users\HAROLD\Pictures\up-heal\PNG\blue-cr.png"
         inkscape:export-xdpi="27.692308"
         inkscape:export-ydpi="27.692308" />
      <path
         style="fill:#0074ff;fill-opacity:1;stroke:#ffffff;stroke-width:4.22469;stroke-opacity:1"
         d="m 338.81516,417.84955 c -6.863,-0.65568 -8.71725,-1.69679 -8.71725,-4.89485 0,-3.00214 2.69126,-4.89878 10.31436,-7.26887 14.94498,-4.64634 27.44451,0.095 25.11847,9.52927 -1.08618,4.40528 -4.57529,4.74934 -26.71558,2.63445 z"
         id="path273986"
         inkscape:export-filename="C:\Users\HAROLD\Pictures\up-heal\PNG\blue-cr.png"
         inkscape:export-xdpi="27.692308"
         inkscape:export-ydpi="27.692308" />
      <path
         style="fill:#0074ff;fill-opacity:1;stroke:#ffffff;stroke-width:4.22469;stroke-opacity:1"
         d="m 330.09791,396.49669 c 0,-5.55192 -0.88919,-7.50983 -3.41059,-7.50983 -1.87582,0 1.74525,-3.91571 8.04683,-8.70166 10.08467,-7.65904 12.82793,-8.70154 22.89621,-8.70154 6.29133,0 11.43879,-0.91947 11.43879,-2.04341 0,-1.12382 4.15351,-0.54227 9.23003,1.29227 5.07651,1.83453 9.23003,4.68678 9.23003,6.33828 0,5.4626 -12.50061,10.59261 -24.10064,9.89047 -10.37925,-0.62835 -10.76837,-0.44809 -10.76837,4.98763 0,3.10166 -0.69225,5.65004 -1.53834,5.66302 -0.84608,0.0127 -5.9226,1.43452 -11.28115,3.159 l -9.7428,3.13549 z"
         id="path274025"
         inkscape:export-filename="C:\Users\HAROLD\Pictures\up-heal\PNG\blue-cr.png"
         inkscape:export-xdpi="27.692308"
         inkscape:export-ydpi="27.692308" />
      <path
         style="fill:#0074ff;fill-opacity:1;stroke:#ffffff;stroke-width:4.22469;stroke-opacity:1"
         d="m 291.86068,377.70022 c -8.99623,-15.84506 -7.39222,-16.99357 23.73289,-16.99357 24.32402,0 24.75906,0.0857 24.71111,4.89473 -0.0749,7.50995 -23.04667,23.38549 -33.83859,23.38549 -7.68571,0 -8.59733,-0.70459 -14.60541,-11.28665 z"
         id="path274064"
         inkscape:export-filename="C:\Users\HAROLD\Pictures\up-heal\PNG\blue-cr.png"
         inkscape:export-xdpi="27.692308"
         inkscape:export-ydpi="27.692308" />
      <path
         style="fill:#0074ff;fill-opacity:1;stroke:#ffffff;stroke-width:4.22469;stroke-opacity:1"
         d="m 251.59424,389.28424 c -11.0258,-5.37815 -19.72329,-10.80797 -19.32789,-12.06628 1.00577,-3.20013 29.56397,-12.13338 38.83622,-12.14819 6.74209,-0.0116 8.30197,1.0564 12.94372,8.85491 8.71618,14.64387 8.66637,15.06219 -1.79396,15.06219 -8.18248,0 -9.39207,0.61167 -9.96224,5.03791 -0.64466,5.00432 -0.78283,4.97269 -20.69585,-4.74054 z"
         id="path274103"
         inkscape:export-filename="C:\Users\HAROLD\Pictures\up-heal\PNG\blue-cr.png"
         inkscape:export-xdpi="27.692308"
         inkscape:export-ydpi="27.692308" />
      <path
         style="fill:#0074ff;fill-opacity:1;stroke:#ffffff;stroke-width:4.22469;stroke-opacity:1"
         d="m 204.97969,419.77467 c 0,-2.71253 -1.29457,-4.68306 -3.07663,-4.68306 -4.40483,0 -3.94782,-1.42166 4.27693,-13.3048 6.87546,-9.93379 7.9424,-10.62458 16.40888,-10.62458 6.48453,0 9.05532,-0.8831 9.05532,-3.1107 0,-2.23699 5.76046,-0.2983 20.51126,6.90326 l 20.51115,10.01384 v 8.32459 8.32446 l -10.76835,0.0116 c -5.92266,0.0116 -21.1522,0.64457 -33.84351,1.42017 -22.66523,1.38517 -23.07505,1.32713 -23.07505,-3.27288 z"
         id="path274142"
         inkscape:export-filename="C:\Users\HAROLD\Pictures\up-heal\PNG\blue-cr.png"
         inkscape:export-xdpi="27.692308"
         inkscape:export-ydpi="27.692308" />
      <path
         style="fill:#0074ff;fill-opacity:1;stroke:#ffffff;stroke-width:4.22469;stroke-opacity:1"
         d="m 384.45254,387.95583 c 4.51245,-2.9477 10.51197,-5.38626 13.33226,-5.41916 4.74861,-0.0556 18.46006,7.13554 18.46006,9.68125 0,0.61584 -8.99928,1.11467 -19.9984,1.10853 l -19.9984,-0.0116 8.20448,-5.35939 z"
         id="path274259"
         inkscape:export-filename="C:\Users\HAROLD\Pictures\up-heal\PNG\blue-cr.png"
         inkscape:export-xdpi="27.692308"
         inkscape:export-ydpi="27.692308" />
      <path
         style="fill:#ff7993;fill-opacity:1;stroke:#ff7993;stroke-width:2.29405px;stroke-linecap:butt;stroke-linejoin:miter;stroke-opacity:1"
         d="m 237.91285,361.39275 -14.16655,9.81276 -14.16624,9.81273 -13.69899,18.7761 -5.01202,16.47371 -1.89774,19.88915 c 0,0 -1.45267,9.67426 3.58121,12.37883 l 6.60196,14.00153 6.13441,5.03832 8.96746,3.0756 11.80094,1.1132 3.20698,5.2081 3.30114,7.00072 9.06099,4.86844 8.96767,3.07559 8.87394,1.28309 8.68686,-2.30239 8.87393,1.28309 3.02034,1.62274 8.87414,1.28295 8.7804,-0.50964 v 0 l 5.85349,-0.33975 0.0931,1.79262 8.96768,3.07569 11.70736,-0.67953 5.85362,-0.33977 5.66657,-3.92512 2.55251,-7.34047 2.5529,-7.3406 5.4795,-7.51037 5.57305,-5.71775 11.6137,-2.47215 14.72774,0.9432 8.78062,-0.50966 5.75971,-2.13236 8.59355,-4.09502 8.59354,-4.09513 5.6662,-3.92498 -0.37411,-7.17071 -0.18704,-3.58526 -0.18705,-3.58535 5.76046,-2.13241 8.68691,-2.30227 5.85361,-0.33977 11.70724,-0.67953 14.35362,-6.2275 8.40634,-7.68037 2.5527,-7.34048 2.27212,-12.71857 -3.39443,-8.79346 -6.41475,-10.41607 -9.15455,-6.66118 -15.10166,-8.11381 -15.00832,-6.32117 -23.78857,-5.81176 -23.78874,-5.81154 -32.38211,-1.71663 -41.06901,0.58574 -26.15424,5.11431 -20.207,6.56716 z"
         id="path64606"
         sodipodi:nodetypes="cccccccccccccccccccccccccccccccccccccccccccccccccccccccccccccc"
         inkscape:export-filename="C:\Users\HAROLD\Pictures\up-heal\PNG\blue-cr.png"
         inkscape:export-xdpi="27.692308"
         inkscape:export-ydpi="27.692308" />
      <rect
         style="fill:#ffffff;fill-opacity:1;stroke:#ffffff;stroke-width:2.24977;stroke-opacity:1"
         id="rect308426"
         width="21.03021"
         height="23.842659"
         x="269.68695"
         y="371.76147"
         inkscape:export-filename="C:\Users\HAROLD\Pictures\up-heal\PNG\blue-cr.png"
         inkscape:export-xdpi="27.692308"
         inkscape:export-ydpi="27.692308" />
      <rect
         style="fill:#ffffff;fill-opacity:1;stroke:#ffffff;stroke-width:2.24977;stroke-opacity:1"
         id="rect308428"
         width="13.053235"
         height="15.382361"
         x="361.05969"
         y="355.60992"
         inkscape:export-filename="C:\Users\HAROLD\Pictures\up-heal\PNG\blue-cr.png"
         inkscape:export-xdpi="27.692308"
         inkscape:export-ydpi="27.692308" />
      <rect
         style="fill:#ffffff;fill-opacity:1;stroke:#ffffff;stroke-width:2.24977;stroke-opacity:1"
         id="rect308430"
         width="17.404314"
         height="16.151478"
         x="421.97482"
         y="385.60559"
         inkscape:export-filename="C:\Users\HAROLD\Pictures\up-heal\PNG\blue-cr.png"
         inkscape:export-xdpi="27.692308"
         inkscape:export-ydpi="27.692308" />
      <rect
         style="fill:#ffffff;fill-opacity:1;stroke:#ffffff;stroke-width:3.49717;stroke-opacity:1"
         id="rect308432"
         width="21.900887"
         height="24.30003"
         x="205.58543"
         y="420.4165"
         inkscape:export-filename="C:\Users\HAROLD\Pictures\up-heal\PNG\blue-cr.png"
         inkscape:export-xdpi="27.692308"
         inkscape:export-ydpi="27.692308" />
      <rect
         style="fill:#0074ff;fill-opacity:1;stroke:#ffffff;stroke-width:2.24977;stroke-opacity:1"
         id="rect308434"
         width="30.799488"
         height="36.470837"
         x="303.77042"
         y="407.91003"
         inkscape:export-filename="C:\Users\HAROLD\Pictures\up-heal\PNG\blue-cr.png"
         inkscape:export-xdpi="27.692308"
         inkscape:export-ydpi="27.692308" />
      <rect
         style="fill:#ffffff;fill-opacity:1;stroke:#ffffff;stroke-width:2.24977;stroke-opacity:1"
         id="rect308436"
         width="19.579853"
         height="19.227949"
         x="216.02382"
         y="374.83792"
         inkscape:export-filename="C:\Users\HAROLD\Pictures\up-heal\PNG\blue-cr.png"
         inkscape:export-xdpi="27.692308"
         inkscape:export-ydpi="27.692308" />
      <rect
         style="fill:#ffffff;fill-opacity:1;stroke:#ffffff;stroke-width:2.24977;stroke-opacity:1"
         id="rect308438"
         width="18.129492"
         height="20.766188"
         x="253.73315"
         y="444.82764"
         inkscape:export-filename="C:\Users\HAROLD\Pictures\up-heal\PNG\blue-cr.png"
         inkscape:export-xdpi="27.692308"
         inkscape:export-ydpi="27.692308" />
      <rect
         style="fill:#ffffff;fill-opacity:1;stroke:#ffffff;stroke-width:2.24977;stroke-opacity:1"
         id="rect308442"
         width="21.755392"
         height="20.766188"
         x="316.8237"
         y="354.84079"
         inkscape:export-filename="C:\Users\HAROLD\Pictures\up-heal\PNG\blue-cr.png"
         inkscape:export-xdpi="27.692308"
         inkscape:export-ydpi="27.692308" />
      <path
         style="fill:none;stroke:#ffffff;stroke-width:2.24977;stroke-linecap:butt;stroke-linejoin:miter;stroke-miterlimit:4;stroke-dasharray:none;stroke-opacity:1"
         d="m 216.39488,433.3209 46.40658,23.65737 56.91852,-29.91167 -39.48399,-42.69215 h -54.61102 z"
         id="path324638"
         inkscape:export-filename="C:\Users\HAROLD\Pictures\up-heal\PNG\blue-cr.png"
         inkscape:export-xdpi="27.692308"
         inkscape:export-ydpi="27.692308" />
      <path
         style="fill:none;stroke:#ffffff;stroke-width:2.24977;stroke-linecap:butt;stroke-linejoin:miter;stroke-miterlimit:4;stroke-dasharray:none;stroke-opacity:1"
         d="m 319.71998,427.0666 68.45605,3.80693 -59.73881,-64.98984 -48.20123,18.49076 150.75713,8.97355 -44.86821,36.98175 -18.71644,-66.34953 62.30271,29.09589 z"
         id="path325681"
         inkscape:export-filename="C:\Users\HAROLD\Pictures\up-heal\PNG\blue-cr.png"
         inkscape:export-xdpi="27.692308"
         inkscape:export-ydpi="27.692308" />
      <path
         style="fill:none;stroke:#ffffff;stroke-width:2.24977;stroke-linecap:butt;stroke-linejoin:miter;stroke-miterlimit:4;stroke-dasharray:none;stroke-opacity:1"
         d="m 367.40847,363.98023 -38.97125,1.90347 -8.71724,61.18291 z"
         id="path327660"
         inkscape:export-filename="C:\Users\HAROLD\Pictures\up-heal\PNG\blue-cr.png"
         inkscape:export-xdpi="27.692308"
         inkscape:export-ydpi="27.692308" />
      <path
         style="fill:none;stroke:#ffffff;stroke-width:2.24977;stroke-linecap:butt;stroke-linejoin:miter;stroke-miterlimit:4;stroke-dasharray:none;stroke-opacity:1"
         d="m 225.62497,384.37445 94.09501,42.69215 -103.3251,6.2543 63.84111,-48.94645 -17.43453,72.60382"
         id="path327662"
         inkscape:export-filename="C:\Users\HAROLD\Pictures\up-heal\PNG\blue-cr.png"
         inkscape:export-xdpi="27.692308"
         inkscape:export-ydpi="27.692308" />
      <g
         id="g5755"
         transform="rotate(-7.482911,340.54691,264.68081)">
        <text
           xml:space="preserve"
           id="text182122"
           style="font-size:96px;line-height:1.25;font-family:sans-serif;white-space:pre;shape-inside:url(#rect182206);fill:#ffffff"
           transform="matrix(0.73517443,-0.72463215,0.76616416,0.71413212,874.90525,-602.53436)"
           inkscape:transform-center-x="1.8763391"
           inkscape:transform-center-y="-4.3021576"
           inkscape:export-filename="C:\Users\HAROLD\Pictures\up-heal\bl-cir2.png"
           inkscape:export-xdpi="27.692308"
           inkscape:export-ydpi="27.692308"><tspan
             x="-1120"
             y="107.58371"
             id="tspan8574">P</tspan></text>
        <text
           xml:space="preserve"
           style="font-size:97.0478px;line-height:1.25;font-family:sans-serif;fill:#ffffff;stroke-width:1.01091"
           x="73.884659"
           y="298.96457"
           id="text182126"
           transform="matrix(0.94086506,-0.38035774,0.41690329,0.89431274,0,0)"
           inkscape:export-filename="C:\Users\HAROLD\Pictures\up-heal\bl-cir2.png"
           inkscape:export-xdpi="27.692308"
           inkscape:export-ydpi="27.692308"><tspan
             sodipodi:role="line"
             id="tspan182124"
             x="73.884659"
             y="298.96457"
             style="fill:#ffffff;stroke-width:1.01091">H</tspan></text>
        <text
           xml:space="preserve"
           style="font-size:97.0478px;line-height:1.25;font-family:sans-serif;fill:#ffffff;stroke-width:1.01091"
           x="224.4351"
           y="240.19807"
           id="text182130"
           transform="matrix(1.023807,-0.08361673,0.10401893,0.96825113,0,0)"
           inkscape:export-filename="C:\Users\HAROLD\Pictures\up-heal\bl-cir2.png"
           inkscape:export-xdpi="27.692308"
           inkscape:export-ydpi="27.692308"><tspan
             sodipodi:role="line"
             id="tspan182128"
             x="224.4351"
             y="240.19807"
             style="fill:#ffffff;stroke-width:1.01091">E</tspan></text>
        <text
           xml:space="preserve"
           style="font-size:97.0478px;line-height:1.25;font-family:sans-serif;fill:#ffffff;stroke-width:1.01091"
           x="322.5918"
           y="201.00211"
           id="text182134"
           transform="matrix(1.0284604,0.0483718,-0.05555466,0.96971427,0,0)"
           inkscape:export-filename="C:\Users\HAROLD\Pictures\up-heal\bl-cir2.png"
           inkscape:export-xdpi="27.692308"
           inkscape:export-ydpi="27.692308"><tspan
             sodipodi:role="line"
             id="tspan182132"
             x="322.5918"
             y="201.00211"
             style="fill:#ffffff;stroke-width:1.01091">A</tspan></text>
        <text
           xml:space="preserve"
           style="font-size:97.0478px;line-height:1.25;font-family:sans-serif;fill:#ffffff;stroke-width:1.01091"
           x="424.90884"
           y="112.93586"
           id="text182138"
           transform="matrix(0.99052609,0.26628915,-0.28252235,0.93361232,0,0)"
           inkscape:export-filename="C:\Users\HAROLD\Pictures\up-heal\bl-cir2.png"
           inkscape:export-xdpi="27.692308"
           inkscape:export-ydpi="27.692308"><tspan
             sodipodi:role="line"
             id="tspan182136"
             x="424.90884"
             y="112.93586"
             style="fill:#ffffff;stroke-width:1.01091">L</tspan></text>
        <text
           xml:space="preserve"
           style="font-size:97.0478px;line-height:1.25;font-family:sans-serif;fill:#ffffff;stroke-width:1.01091"
           x="486.53873"
           y="-294.25198"
           id="text182146"
           transform="matrix(0.49994521,0.85629052,-0.89952929,0.45953354,0,0)"
           inkscape:export-filename="C:\Users\HAROLD\Pictures\up-heal\bl-cir2.png"
           inkscape:export-xdpi="27.692308"
           inkscape:export-ydpi="27.692308"><tspan
             sodipodi:role="line"
             id="tspan182144"
             x="486.53873"
             y="-294.25198"
             style="fill:#ffffff;stroke-width:1.01091">A</tspan></text>
        <text
           xml:space="preserve"
           style="font-size:97.0478px;line-height:1.25;font-family:sans-serif;fill:#ffffff;stroke-width:1.01091"
           x="504.62277"
           y="-362.70294"
           id="text182150"
           transform="matrix(0.36671164,0.90723432,-0.96254008,0.34564108,0,0)"
           inkscape:export-filename="C:\Users\HAROLD\Pictures\up-heal\bl-cir2.png"
           inkscape:export-xdpi="27.692308"
           inkscape:export-ydpi="27.692308"><tspan
             sodipodi:role="line"
             id="tspan182148"
             x="504.62277"
             y="-362.70294"
             style="fill:#ffffff;stroke-width:1.01091">O</tspan></text>
        <text
           xml:space="preserve"
           style="font-size:96px;line-height:1.25;font-family:sans-serif;-inkscape-font-specification:'sans-serif, Normal';fill:#ffffff"
           x="-199.91896"
           y="280.23843"
           id="text3875"
           transform="rotate(-51.684825)"><tspan
             sodipodi:role="line"
             id="tspan3873"
             x="-199.91896"
             y="280.23843">U</tspan></text>
        <text
           xml:space="preserve"
           style="font-size:96px;line-height:1.25;font-family:sans-serif;-inkscape-font-specification:'sans-serif, Normal';fill:#ffffff"
           x="526.55353"
           y="-39.996426"
           id="text4539"
           transform="rotate(32.86787)"><tspan
             sodipodi:role="line"
             id="tspan4537"
             x="526.55353"
             y="-39.996426">D</tspan></text>
      </g>
      <path
         style="fill:#ffffff;fill-opacity:1;stroke:#ffffff;stroke-width:1.20947"
         d="m 305.06854,439.66831 v -3.16241 l 6.04824,-3.2318 c 4.41924,-2.36136 6.18449,-3.01133 6.55414,-2.41324 0.36736,0.59441 0.77853,0.42932 1.50154,-0.60293 0.91562,-1.30723 1.49609,-1.40605 7.22208,-1.22946 l 6.22644,0.19202 0.1892,6.80512 0.18921,6.80512 h -13.96542 -13.96543 z"
         id="path7499" />
      <path
         style="fill:#ffffff;fill-opacity:1;stroke:#ffffff;stroke-width:1.20947"
         d="m 324.32205,423.86946 c 0,-0.18634 1.94195,-2.91336 4.31545,-6.06004 l 4.31544,-5.72123 v 4.72305 4.72305 l -2.73821,0.73733 c -1.50602,0.40553 -3.44797,1.00717 -4.31545,1.33698 -0.86747,0.32982 -1.57723,0.4472 -1.57723,0.26086 z"
         id="path7538" />
      <path
         style="fill:#ffffff;fill-opacity:1;stroke:#ffffff;stroke-width:1.20947"
         d="m 312.15042,416.67867 -6.52836,-7.04365 h 7.58258 7.58258 l -0.89046,6.14121 c -0.48975,3.37766 -0.96415,6.5473 -1.05422,7.04365 -0.0901,0.49634 -3.10152,-2.2672 -6.69212,-6.14121 z"
         id="path7577" />
      <path
         style="fill:#ffffff;fill-opacity:1;stroke:#ffffff;stroke-width:1.20947"
         d="m 322.59549,417.60199 c 1.0247,-8.40741 0.75835,-7.96697 4.8179,-7.96697 h 3.60748 l -4.125,5.47729 c -2.26875,3.01251 -4.2646,5.62667 -4.43522,5.80925 -0.17062,0.18258 -0.10994,-1.31123 0.13484,-3.31957 z"
         id="path7655" />
      <rect
         style="fill:#ffffff;fill-opacity:1;stroke:#ffffff;stroke-width:2.24977;stroke-opacity:1"
         id="rect308440"
         width="23.930931"
         height="24.611778"
         x="371.8801"
         y="418.9231"
         inkscape:export-filename="C:\Users\HAROLD\Pictures\up-heal\PNG\blue-cr.png"
         inkscape:export-xdpi="27.692308"
         inkscape:export-ydpi="27.692308" />
      <path
         style="fill:#ffffff;stroke:#ffffff;stroke-width:9.0989;stroke-linecap:butt;stroke-linejoin:miter;stroke-miterlimit:4;stroke-dasharray:none;stroke-opacity:1"
         d="m 308.43551,410.88173 c 1.07083,1.29823 2.28578,2.58396 3.21246,3.8947 0.3812,0.53918 1.40141,8.97037 0.96397,9.41224 -1.44929,1.4639 -4.48442,0.56461 -2.89188,3.24559 1.03134,1.73626 4.31757,4.43885 5.78377,6.16663 0.43868,0.51697 1.77847,3.16764 1.92791,3.57016 0.0796,0.21471 0,0.8655 0,0.64913 0,-1.17806 -0.55203,-9.08768 -0.96397,-9.08768 -1.61119,0 -2.70014,1.36098 -2.89188,0.97368 -2.11089,-4.26432 -0.96395,-8.68125 -0.96395,-12.98237 0,-0.1082 0,0.21636 0,0.32454 0,1.19006 0,2.38012 0,3.57016 0,2.89613 -0.15855,-1.80512 1.92792,4.8684 0.30272,0.96833 0,1.94735 0,2.92104 0,0.21637 0,0.86548 0,0.64912 0,-1.83918 0,-3.67834 0,-5.51751 0,-0.8655 0,-3.46198 0,-2.59648 0,1.94735 0,3.89471 0,5.84207 0,0.97368 0,1.94735 0,2.92103 0,0.21638 -0.64263,0.64912 0,0.64912 1.09182,0 -0.8662,-8.60315 0,-10.06135 0.063,-0.10608 0.81009,-0.0949 0.96397,0 1.85914,1.14762 3.73269,2.31523 4.81979,3.57016 2.0745,2.39475 1.92794,3.28563 1.92794,5.19296 0,0.0571 0,-1.8903 0,-1.94736 0,-1.23679 -1.52416,-4.16661 0.96394,-5.84207 0.14374,-0.0968 0,0.21637 0,0.32455 0,0.54093 0,1.08187 0,1.6228 0,2.48829 0,4.97658 0,7.46487 0,0.32456 0.23376,1.28855 0,0.97368 -1.39337,-1.87655 -1.26054,-4.79348 -0.96394,-6.4912 0.0778,-0.44528 0.37146,-0.89926 0.96394,-1.29823 0.32134,-0.21637 1.73053,0.0919 1.92794,0.32456 0.98691,1.16303 1.22337,2.38408 1.92791,3.57016"
         id="path8099" />
      <rect
         style="fill:#ffffff;fill-opacity:1;stroke:#ffffff;stroke-width:5.4;stroke-miterlimit:4;stroke-dasharray:none"
         id="rect8368"
         width="27.377331"
         height="33.195709"
         x="305.62207"
         y="409.63501" />
    </g>
  </g>
</svg>
